<?xml version="1.0" encoding="UTF-8" standalone="no"?>
<svg width="180px" height="116px" viewBox="0 0 180 116" version="1.1" xmlns="http://www.w3.org/2000/svg" xmlns:xlink="http://www.w3.org/1999/xlink" xmlns:sketch="http://www.bohemiancoding.com/sketch/ns">
    <!-- Generator: Sketch 3.3.3 (12072) - http://www.bohemiancoding.com/sketch -->
    <title>logoWordmark</title>
    <desc>Created with Sketch.</desc>
    <defs></defs>
    <g id="Page-1" stroke="none" stroke-width="1" fill="none" fill-rule="evenodd" sketch:type="MSPage">
        <g id="Desktop" sketch:type="MSArtboardGroup" transform="translate(-570.000000, -355.000000)" fill="#FFFFFF">
            <g id="logoWordmark" sketch:type="MSLayerGroup" transform="translate(570.000000, 355.000000)">
                <path d="M117.196654,40.4201159 C115.165056,36.6997101 114.351402,38.3976812 114.351402,38.3976812 C114.351402,38.3976812 109.225888,47.4507246 108.733636,48.5048116 C108.244766,49.5555362 109.626794,49.3117681 109.626794,49.3117681 L112.159103,49.3117681 C110.998673,51.0030145 106.77985,56.6870145 102.138131,56.8282319 C96.6844486,56.9795362 93.1151963,52.8556522 93.0306168,48.8124638 L92.9578785,48.8124638 L92.9697196,27.0918841 L102.606701,27.0986087 L102.615159,22.1711304 L92.9731028,22.1644058 L92.9731028,20.922029 C97.2122243,19.6645217 100.319673,15.7642319 100.321364,11.1477681 C100.321364,5.51924638 95.7151682,0.939768116 90.051729,0.933043478 C84.3933645,0.929681159 79.7770187,5.5057971 79.7770187,11.1343188 C79.7736355,15.8953623 83.0773084,19.8948406 87.5228037,21.0212174 L87.5228037,22.1644058 L77.2920748,22.1576812 L77.2886916,27.0851594 L87.5160374,27.0885217 L87.5025047,48.8091014 C87.4196168,52.8472464 83.840215,56.9728116 78.3865327,56.8114203 C73.7481963,56.6735652 69.532757,50.9727536 68.3824766,49.2848696 L70.9063271,49.2848696 C70.9063271,49.2848696 72.2866636,49.5252754 71.8079439,48.477913 C71.314,47.4271884 66.1986355,38.3674203 66.1986355,38.3674203 C66.1986355,38.3674203 65.3832897,36.6694493 63.35,40.3848116 C61.3133271,44.1035362 60.4184766,51.0551304 60.4184766,51.0551304 C60.4184766,51.0551304 60.7381869,51.8671304 61.1475514,51.0551304 L63.4041308,49.8211594 C65.6184206,58.696 83.5441869,64.7011014 85.4573738,65.5484058 C87.4923551,66.4326957 89.3615607,69.5882319 89.3615607,69.5882319 L91.1495701,69.5882319 C91.1495701,69.5882319 93.0221589,66.436058 95.0554486,65.5484058 C96.9720187,64.7145507 114.901168,58.7195362 117.123916,49.8531014 L119.387262,51.0921159 C119.78986,51.9057971 120.11972,51.0954783 120.11972,51.0954783 C120.11972,51.0954783 119.228252,44.1405217 117.196654,40.4201159 L117.196654,40.4201159 Z M84.7350654,11.1410435 C84.736757,8.22255072 87.1218972,5.85715942 90.051729,5.86052174 C92.9849439,5.86052174 95.3633178,8.23263768 95.3565514,11.1477681 C95.3565514,14.0561739 92.9731028,16.4215652 90.0398879,16.4182029 C87.1168224,16.4182029 84.7333738,14.0427246 84.7350654,11.1410435 L84.7350654,11.1410435 Z" id="Fill-1" sketch:type="MSShapeGroup"></path>
                <path d="M31.2334953,115.201449 L31.2334953,107.905217 L32.4074579,107.905217 C33.1991215,107.905217 33.8148598,108.02458 34.2225327,108.333913 C34.6318972,108.641565 34.8416542,109.117333 34.8416542,109.840232 C34.8416542,110.188232 34.8027477,110.443768 34.6674206,110.684174 C34.5320935,110.919536 34.3223364,111.121275 34.0127757,111.349913 C34.3477103,111.497855 34.5946822,111.776928 34.7909065,112.24429 C34.8907103,112.469565 34.9397664,112.768812 34.9397664,113.136986 C34.9397664,113.681681 34.8162804,114.167536 34.5067196,114.545797 C34.2005421,114.922377 33.6676916,115.169507 32.876028,115.201449 L31.2334953,115.201449 L31.2334953,115.201449 Z M32.5681589,110.914493 C32.6798037,110.914493 32.9386168,110.919536 33.1619065,110.801855 C33.3835047,110.684174 33.5560467,110.443768 33.5560467,109.942783 C33.5560467,109.433391 33.3835047,109.196348 33.1619065,109.078667 C32.9386168,108.955942 32.6798037,108.966029 32.5681589,108.966029 L32.5681589,110.914493 L32.5681589,110.914493 Z M32.5681589,114.138957 C32.6798037,114.138957 32.9386168,114.157449 33.1619065,114.026319 C33.3835047,113.898551 33.5560467,113.612754 33.5560467,113.019304 C33.5560467,112.420812 33.3835047,112.135014 33.1619065,112.003884 C32.9386168,111.876116 32.6798037,111.89629 32.5681589,111.89629 L32.5681589,114.138957 L32.5681589,114.138957 Z" id="Fill-2" sketch:type="MSShapeGroup"></path>
                <path d="M37.2589346,115.201449 L38.6308131,107.905217 L40.2615047,107.905217 L41.6316916,115.201449 L40.3359346,115.201449 L40.087271,113.711942 L38.8050467,113.711942 L38.5546916,115.201449 L37.2589346,115.201449 L37.2589346,115.201449 Z M39.5188972,110.277333 L39.4833738,110.089043 L39.4072523,110.089043 L39.3700374,110.277333 L38.9894299,112.582203 L39.9028879,112.582203 L39.5188972,110.277333 L39.5188972,110.277333 Z" id="Fill-3" sketch:type="MSShapeGroup"></path>
                <path d="M44.2589346,115.201449 L45.6308131,107.905217 L47.2615047,107.905217 L48.6316916,115.201449 L47.3359346,115.201449 L47.087271,113.711942 L45.8050467,113.711942 L45.5546916,115.201449 L44.2589346,115.201449 L44.2589346,115.201449 Z M46.5188972,110.277333 L46.4833738,110.089043 L46.4072523,110.089043 L46.3700374,110.277333 L45.9894299,112.582203 L46.9028879,112.582203 L46.5188972,110.277333 L46.5188972,110.277333 Z" id="Fill-3-Copy" sketch:type="MSShapeGroup"></path>
                <path d="M52.3360654,111.400348 L52.2261121,111.060754 L52.1516822,111.060754 L52.1516822,115.201449 L50.926972,115.201449 L50.926972,107.905217 L52.1144673,107.905217 L53.4119159,111.708 L53.5235607,112.044232 L53.5979907,112.044232 L53.5979907,107.905217 L54.8193178,107.905217 L54.8193178,115.201449 L53.633514,115.201449 L52.3360654,111.400348" id="Fill-5" sketch:type="MSShapeGroup"></path>
                <path d="M59.6098972,115.201449 L59.6098972,107.905217 L60.7838598,107.905217 C61.5721402,107.905217 62.1912617,108.02458 62.5989346,108.333913 C63.0066075,108.641565 63.2163645,109.117333 63.2163645,109.840232 C63.2163645,110.188232 63.1791495,110.443768 63.0438224,110.684174 C62.9068037,110.919536 62.6987383,111.121275 62.3891776,111.349913 C62.7224206,111.497855 62.9693925,111.776928 63.169,112.24429 C63.2654206,112.469565 63.3161682,112.768812 63.3161682,113.136986 C63.3161682,113.681681 63.1909907,114.167536 62.8831215,114.545797 C62.5735607,114.922377 62.0440935,115.169507 61.2524299,115.201449 L59.6098972,115.201449 L59.6098972,115.201449 Z M60.9428692,110.914493 C61.054514,110.914493 61.3150187,110.919536 61.5366168,110.801855 C61.7599065,110.684174 61.930757,110.443768 61.930757,109.942783 C61.930757,109.433391 61.7599065,109.196348 61.5366168,109.078667 C61.3150187,108.955942 61.054514,108.966029 60.9428692,108.966029 L60.9428692,110.914493 L60.9428692,110.914493 Z M60.9428692,114.138957 C61.054514,114.138957 61.3150187,114.157449 61.5366168,114.026319 C61.7599065,113.898551 61.930757,113.612754 61.930757,113.019304 C61.930757,112.420812 61.7599065,112.135014 61.5366168,112.003884 C61.3150187,111.876116 61.054514,111.89629 60.9428692,111.89629 L60.9428692,114.138957 L60.9428692,114.138957 Z" id="Fill-6" sketch:type="MSShapeGroup"></path>
                <path d="M69.4769346,113.701855 C69.4634019,113.99942 69.388972,114.266725 69.2536449,114.497043 C69.1436916,114.693739 68.9711495,114.88371 68.722486,115.031652 C68.4772056,115.189681 68.142271,115.280464 67.6990748,115.280464 C67.2541869,115.280464 66.9074112,115.189681 66.6604393,115.031652 C66.4134673,114.88371 66.2527664,114.693739 66.1411215,114.497043 C66.0041028,114.266725 65.9313645,113.99942 65.9195234,113.701855 L65.9195234,109.40313 C65.9313645,109.117333 66.0041028,108.848348 66.1411215,108.621391 C66.2527664,108.421333 66.4134673,108.224638 66.6604393,108.073333 C66.9074112,107.925391 67.2541869,107.827884 67.6990748,107.827884 C68.142271,107.827884 68.4772056,107.925391 68.722486,108.073333 C68.9711495,108.224638 69.1436916,108.421333 69.2536449,108.621391 C69.388972,108.848348 69.4634019,109.117333 69.4769346,109.40313 L69.4769346,113.701855 L69.4769346,113.701855 Z M68.142271,109.40313 C68.142271,109.206435 68.093215,109.06858 67.969729,108.947536 C67.9071402,108.897101 67.809028,108.868522 67.6990748,108.868522 C67.4622523,108.868522 67.3506075,109.006377 67.3015514,109.137507 C67.266028,109.216522 67.2541869,109.305623 67.2541869,109.40313 L67.2541869,113.701855 C67.2541869,113.908638 67.3150841,114.049855 67.4385701,114.157449 C67.4994673,114.207884 67.5857383,114.236464 67.6990748,114.236464 C67.932514,114.236464 68.0441589,114.118783 68.093215,113.970841 C68.1287383,113.898551 68.142271,113.809449 68.142271,113.701855 L68.142271,109.40313 L68.142271,109.40313 Z" id="Fill-7" sketch:type="MSShapeGroup"></path>
                <path d="M75.7493458,113.701855 C75.7375047,113.99942 75.6630748,114.266725 75.5260561,114.497043 C75.4161028,114.693739 75.2435607,114.88371 74.9948972,115.031652 C74.7479252,115.189681 74.4146822,115.280464 73.971486,115.280464 C73.5265981,115.280464 73.1798224,115.189681 72.9328505,115.031652 C72.6858785,114.88371 72.5251776,114.693739 72.4135327,114.497043 C72.2782056,114.266725 72.2054673,113.99942 72.1919346,113.701855 L72.1919346,109.40313 C72.2054673,109.117333 72.2782056,108.848348 72.4135327,108.621391 C72.5251776,108.421333 72.6858785,108.224638 72.9328505,108.073333 C73.1798224,107.925391 73.5265981,107.827884 73.971486,107.827884 C74.4146822,107.827884 74.7479252,107.925391 74.9948972,108.073333 C75.2435607,108.224638 75.4161028,108.421333 75.5260561,108.621391 C75.6630748,108.848348 75.7375047,109.117333 75.7493458,109.40313 L75.7493458,113.701855 L75.7493458,113.701855 Z M74.4146822,109.40313 C74.4146822,109.206435 74.3656262,109.06858 74.2438318,108.947536 C74.181243,108.897101 74.0814393,108.868522 73.971486,108.868522 C73.7346636,108.868522 73.6230187,109.006377 73.5756542,109.137507 C73.5384393,109.216522 73.5265981,109.305623 73.5265981,109.40313 L73.5265981,113.701855 C73.5265981,113.908638 73.5874953,114.049855 73.7109813,114.157449 C73.7718785,114.207884 73.8598411,114.236464 73.971486,114.236464 C74.2049252,114.236464 74.3165701,114.118783 74.3656262,113.970841 C74.4011495,113.898551 74.4146822,113.809449 74.4146822,113.701855 L74.4146822,109.40313 L74.4146822,109.40313 Z" id="Fill-8" sketch:type="MSShapeGroup"></path>
                <path d="M79.9597103,111.400348 L79.8463738,111.060754 L79.7736355,111.060754 L79.7736355,115.201449 L78.5489252,115.201449 L78.5489252,107.905217 L79.7364206,107.905217 L81.0321776,111.708 L81.145514,112.044232 L81.2199439,112.044232 L81.2199439,107.905217 L82.441271,107.905217 L82.441271,115.201449 L81.2554673,115.201449 L79.9597103,111.400348" id="Fill-9" sketch:type="MSShapeGroup"></path>
                <path d="M87.2301589,107.905217 L88.5648224,107.905217 C89.1450374,107.905217 89.7269439,108.02458 90.1718318,108.362493 C90.615028,108.700406 90.9127477,109.255188 90.9127477,110.089043 C90.9127477,110.919536 90.615028,111.469275 90.1718318,111.807188 C89.7269439,112.145101 89.1450374,112.282957 88.5648224,112.282957 L88.5648224,115.201449 L87.2301589,115.201449 L87.2301589,107.905217 L87.2301589,107.905217 Z M88.5648224,111.190203 C88.9724953,111.190203 89.2313084,111.129681 89.3801682,110.963246 C89.529028,110.801855 89.5645514,110.536232 89.5645514,110.129391 C89.5645514,109.722551 89.529028,109.433391 89.3801682,109.255188 C89.2313084,109.078667 88.9724953,108.99629 88.5648224,108.99629 L88.5648224,111.190203 L88.5648224,111.190203 Z" id="Fill-10" sketch:type="MSShapeGroup"></path>
                <path d="M93.4805794,107.905217 L96.530514,107.905217 L96.530514,109.006377 L94.8135514,109.006377 L94.8135514,110.919536 L96.0484112,110.919536 L96.0484112,112.096348 L94.8135514,112.096348 L94.8135514,114.098609 L96.530514,114.098609 L96.530514,115.201449 L93.4805794,115.201449 L93.4805794,107.905217" id="Fill-11" sketch:type="MSShapeGroup"></path>
                <path d="M98.702514,109.006377 L98.702514,107.905217 L102.555953,107.905217 L102.555953,109.006377 L101.29572,109.006377 L101.29572,115.201449 L99.9627477,115.201449 L99.9627477,109.006377 L98.702514,109.006377" id="Fill-12" sketch:type="MSShapeGroup"></path>
                <path d="M108.446065,112.699884 L108.446065,113.701855 C108.435916,113.99942 108.361486,114.266725 108.222776,114.497043 C108.112822,114.693739 107.94028,114.88371 107.693308,115.031652 C107.446336,115.189681 107.111402,115.280464 106.668206,115.280464 C106.223318,115.280464 105.878234,115.189681 105.62957,115.031652 C105.382598,114.88371 105.221897,114.693739 105.110252,114.497043 C104.974925,114.266725 104.902187,113.99942 104.888654,113.701855 L104.888654,109.40313 C104.902187,109.117333 104.974925,108.848348 105.110252,108.621391 C105.221897,108.421333 105.382598,108.224638 105.62957,108.073333 C105.878234,107.925391 106.223318,107.827884 106.668206,107.827884 C107.111402,107.827884 107.446336,107.925391 107.693308,108.073333 C107.94028,108.224638 108.112822,108.421333 108.222776,108.621391 C108.361486,108.848348 108.435916,109.117333 108.446065,109.40313 L108.446065,110.405101 L107.199364,110.405101 L107.199364,109.40313 C107.199364,109.206435 107.136776,109.06858 107.001449,108.947536 C106.940551,108.897101 106.827215,108.868522 106.691888,108.868522 C106.458449,108.868522 106.346804,109.006377 106.284215,109.137507 C106.248692,109.216522 106.235159,109.305623 106.223318,109.40313 L106.223318,113.701855 C106.235159,113.908638 106.309589,114.049855 106.433075,114.157449 C106.493972,114.207884 106.581935,114.236464 106.691888,114.236464 C106.976075,114.236464 107.08772,114.118783 107.150308,113.970841 C107.185832,113.898551 107.199364,113.809449 107.199364,113.701855 L107.199364,112.699884 L108.446065,112.699884" id="Fill-13" sketch:type="MSShapeGroup"></path>
                <path d="M113.51914,112.024058 L112.482196,112.024058 L112.482196,115.201449 L111.147533,115.201449 L111.147533,107.905217 L112.482196,107.905217 L112.482196,110.919536 L113.51914,110.919536 L113.51914,107.905217 L114.853804,107.905217 L114.853804,115.201449 L113.51914,115.201449 L113.51914,112.024058" id="Fill-14" sketch:type="MSShapeGroup"></path>
                <path d="M122.027832,115.201449 L121.335972,112.121565 L120.977355,112.121565 L120.977355,115.201449 L119.641,115.201449 L119.641,107.905217 L120.977355,107.905217 C122.572523,107.905217 123.25085,108.631478 123.25085,110.010029 C123.25085,110.732928 123.01572,111.390261 122.509935,111.665971 L123.362495,115.201449 L122.027832,115.201449 L122.027832,115.201449 Z M120.977355,111.129681 C121.161738,111.129681 121.410402,111.111188 121.608318,110.973333 C121.806234,110.832116 121.966935,110.566493 121.966935,110.050377 C121.966935,109.534261 121.806234,109.255188 121.608318,109.117333 C121.410402,108.976116 121.161738,108.966029 120.977355,108.966029 L120.977355,111.129681 L120.977355,111.129681 Z" id="Fill-15" sketch:type="MSShapeGroup"></path>
                <path d="M126.001374,107.905217 L129.054692,107.905217 L129.054692,109.006377 L127.336037,109.006377 L127.336037,110.919536 L128.572589,110.919536 L128.572589,112.096348 L127.336037,112.096348 L127.336037,114.098609 L129.054692,114.098609 L129.054692,115.201449 L126.001374,115.201449 L126.001374,107.905217" id="Fill-16" sketch:type="MSShapeGroup"></path>
                <path d="M133.906168,109.863768 C133.906168,109.623362 133.894327,109.354377 133.808056,109.147594 C133.721785,108.947536 133.586458,108.809681 133.375009,108.809681 C133.029925,108.818087 132.91828,109.107246 132.91828,109.534261 C132.91828,109.781391 133.053607,110.04029 133.251523,110.316 C133.449439,110.595072 133.708252,110.88087 133.967065,111.190203 C134.276626,111.556696 134.586187,111.934957 134.819626,112.30313 C135.056449,112.671304 135.21715,113.047884 135.21715,113.444638 C135.21715,113.932174 135.117346,114.384406 134.833159,114.725681 C134.548972,115.060232 134.090551,115.280464 133.363168,115.280464 C132.510607,115.280464 132.028505,115.021565 131.75785,114.624812 C131.485505,114.226377 131.422916,113.701855 131.422916,113.157159 L132.733897,113.057971 C132.733897,113.363942 132.745738,113.671594 132.84385,113.898551 C132.930121,114.138957 133.078981,114.295304 133.363168,114.295304 C133.757308,114.295304 133.906168,113.960754 133.906168,113.495072 C133.906168,113.254667 133.757308,112.978957 133.561084,112.689797 C133.449439,112.54858 133.337794,112.400638 133.214308,112.254377 C132.955495,111.95513 132.671308,111.62058 132.37528,111.252406 C132.077561,110.88087 131.854271,110.505971 131.718944,110.119304 C131.644514,109.929333 131.608991,109.732638 131.608991,109.534261 C131.608991,109.137507 131.718944,108.710493 132.003131,108.382667 C132.289009,108.066609 132.720364,107.837971 133.349636,107.827884 C134.15314,107.817797 134.623402,108.08342 134.882215,108.471768 C135.14272,108.868522 135.21715,109.354377 135.21715,109.761217 L133.906168,109.863768" id="Fill-17" sketch:type="MSShapeGroup"></path>
                <path d="M141.303486,113.701855 C141.291645,113.99942 141.217215,114.266725 141.080196,114.497043 C140.971935,114.693739 140.797701,114.88371 140.550729,115.031652 C140.303757,115.189681 139.970514,115.280464 139.523935,115.280464 C139.080738,115.280464 138.735654,115.189681 138.486991,115.031652 C138.240019,114.88371 138.079318,114.693739 137.969364,114.497043 C137.832346,114.266725 137.759607,113.99942 137.746075,113.701855 L137.746075,109.40313 C137.759607,109.117333 137.832346,108.848348 137.969364,108.621391 C138.079318,108.421333 138.240019,108.224638 138.486991,108.073333 C138.735654,107.925391 139.080738,107.827884 139.523935,107.827884 C139.970514,107.827884 140.303757,107.925391 140.550729,108.073333 C140.797701,108.224638 140.971935,108.421333 141.080196,108.621391 C141.217215,108.848348 141.291645,109.117333 141.303486,109.40313 L141.303486,113.701855 L141.303486,113.701855 Z M139.970514,109.40313 C139.970514,109.206435 139.921458,109.06858 139.797972,108.947536 C139.735383,108.897101 139.637271,108.868522 139.523935,108.868522 C139.290495,108.868522 139.17885,109.006377 139.129794,109.137507 C139.092579,109.216522 139.080738,109.305623 139.080738,109.40313 L139.080738,113.701855 C139.080738,113.908638 139.143327,114.049855 139.265121,114.157449 C139.32771,114.207884 139.413981,114.236464 139.523935,114.236464 C139.759065,114.236464 139.872402,114.118783 139.921458,113.970841 C139.956981,113.898551 139.970514,113.809449 139.970514,113.701855 L139.970514,109.40313 L139.970514,109.40313 Z" id="Fill-18" sketch:type="MSShapeGroup"></path>
                <path d="M146.489897,115.201449 L145.798037,112.121565 L145.437729,112.121565 L145.437729,115.201449 L144.106449,115.201449 L144.106449,107.905217 L145.437729,107.905217 C147.032897,107.905217 147.712916,108.631478 147.712916,110.010029 C147.712916,110.732928 147.477785,111.390261 146.972,111.665971 L147.824561,115.201449 L146.489897,115.201449 L146.489897,115.201449 Z M145.437729,111.129681 C145.623804,111.129681 145.870776,111.111188 146.070383,110.973333 C146.268299,110.832116 146.427308,110.566493 146.427308,110.050377 C146.427308,109.534261 146.268299,109.255188 146.070383,109.117333 C145.870776,108.976116 145.623804,108.966029 145.437729,108.966029 L145.437729,111.129681 L145.437729,111.129681 Z" id="Fill-19" sketch:type="MSShapeGroup"></path>
                <path d="M149.994869,109.006377 L149.994869,107.905217 L153.85,107.905217 L153.85,109.006377 L152.589766,109.006377 L152.589766,115.201449 L151.255103,115.201449 L151.255103,109.006377 L149.994869,109.006377" id="Fill-20" sketch:type="MSShapeGroup"></path>
                <path d="M3.982,70.3985507 C3.63860748,70.7953043 3.26984112,71.0357101 2.87062617,71.118087 C2.47479439,71.2021449 2.11786916,71.1601159 1.80661682,70.992 C1.49198131,70.8222029 1.24162617,70.559942 1.05893458,70.2085797 C0.872859813,69.8538551 0.825495327,69.4234783 0.908383178,68.914087 C1.36511215,68.0634203 1.79139252,67.3422029 2.19060748,66.7470725 C2.58643925,66.1536232 3.02963551,65.666087 3.51173832,65.2861449 C3.9972243,64.9045217 4.57236449,64.6069565 5.24223364,64.3934493 C5.9121028,64.1833043 6.74436449,64.0353623 7.74071028,63.9462609 C8.19574766,63.8941449 8.58650467,63.9765217 8.91298131,64.2034783 C9.23945794,64.4287536 9.5321028,64.7212754 9.7892243,65.0726377 C10.0446542,65.4273623 10.251028,65.814029 10.4083458,66.2410435 C10.563972,66.6646957 10.6992991,67.0463188 10.8160187,67.3875942 C10.9276636,68.9409855 10.9428879,70.454029 10.8566168,71.9250435 C10.7703458,73.3994203 10.6197944,74.8536232 10.4083458,76.296058 C10.193514,77.7401739 9.93808411,79.1876522 9.6386729,80.6468986 C9.33926168,82.1011014 9.04830841,83.5956522 8.76581308,85.1187826 C8.67785047,85.6298551 8.55098131,86.1964058 8.38013084,86.8201159 C8.20758879,87.4404638 8.06042056,88.0843478 7.93185981,88.7467246 C7.80160748,89.4124638 7.71871963,90.0697971 7.67304673,90.7237681 C7.63414019,91.3743768 7.68319626,91.9812754 7.82528972,92.5427826 L7.95385047,92.8016812 L8.12470093,92.9697971 C8.15176636,92.9697971 8.16360748,92.9849275 8.16360748,93.0151884 C8.87745794,93.2673623 9.74524299,93.3732754 10.7703458,93.3312464 C11.793757,93.2875362 12.7968692,93.1765797 13.7830654,92.9933333 C14.7658785,92.8084058 15.6370467,92.5881739 16.4033364,92.336 C17.1747009,92.0804638 17.6466542,91.8535072 17.8158131,91.6551304 C18.0983084,91.5441739 18.404486,91.0246957 18.7326542,90.1067826 C19.062514,89.1871884 19.4092897,88.0137391 19.7797477,86.5864348 C20.1468224,85.1574493 20.5325047,83.5452174 20.9334112,81.7497391 C21.3309346,79.9508986 21.7352243,78.1184348 22.1496636,76.2557101 C22.5607196,74.3845797 22.9717757,72.5487536 23.3845234,70.7364638 C23.7989626,68.9275362 24.216785,67.2850435 24.6464486,65.814029 C24.759785,65.2205797 25.0033738,64.7969275 25.3704486,64.5413913 C25.7409065,64.2875362 26.1248972,64.1833043 26.5258037,64.2253333 C26.9250187,64.2656812 27.2717944,64.4590145 27.569514,64.7969275 C27.8689252,65.1382029 28.0059439,65.6038841 27.9771869,66.1956522 C27.3496075,69.2234203 26.6459065,72.1385507 25.8593178,74.9393623 C25.0778037,77.7401739 24.3318131,80.6368116 23.6213458,83.6343188 C23.4217383,84.4849855 23.2305888,85.4113043 23.0462056,86.4149565 C22.8601308,87.4202899 22.6182336,88.4155362 22.3188224,89.4074203 C22.0227944,90.3993043 21.6506449,91.3373913 21.2091402,92.2267246 C20.7659439,93.1211014 20.2043364,93.875942 19.5243178,94.4962899 C19.0946542,94.8930435 18.4789159,95.2544928 17.6652617,95.5789565 C16.8516075,95.9051014 15.9516822,96.164 14.9519533,96.364058 C13.9572991,96.5607536 12.9203551,96.6834783 11.8394299,96.7255072 C10.7534299,96.7658551 9.73847664,96.6969275 8.78611215,96.512 C7.83205607,96.3287536 6.97780374,96.0093333 6.22504673,95.5604638 C5.46890654,95.1065507 4.93436449,94.4962899 4.62480374,93.7347246 C4.31016822,93.0286377 4.15961682,92.2569855 4.17484112,91.4231304 C4.19006542,90.5892754 4.27126168,89.7486957 4.43196262,88.898029 C4.58758879,88.0473623 4.77366355,87.2135072 4.98680374,86.3964638 C5.19825234,85.5743768 5.37756075,84.8262609 5.51965421,84.1437101 C5.63299065,83.5788406 5.76831776,82.9315942 5.9273271,82.1935652 C6.08126168,81.4605797 6.23688785,80.6956522 6.3958972,79.9004638 C6.55152336,79.1136812 6.69192523,78.3386667 6.82048598,77.5888696 C6.95073832,76.8407536 7.05561682,76.1834203 7.14019626,75.6151884 C7.22815888,75.1041159 7.31781308,74.4921739 7.41930841,73.7709565 C7.51911215,73.0514203 7.59692523,72.3066667 7.65105607,71.5451014 C7.71364486,70.7801739 7.70518692,70.0303768 7.63414019,69.2957101 C7.55971028,68.5593623 7.39731776,67.9390145 7.14019626,67.4296232 C6.91352336,67.4296232 6.65301869,67.4766957 6.35191589,67.5775652 C6.05419626,67.6733913 5.76324299,67.8667246 5.47398131,68.1491594 C5.24730841,68.5173333 5.00202804,68.8855072 4.72799065,69.252 C4.46071963,69.6201739 4.21036449,70.0017971 3.982,70.3985507" id="Fill-21" sketch:type="MSShapeGroup"></path>
                <path d="M27.474785,50.8853333 C27.0789533,51.124058 26.7135701,51.1997101 26.3752523,51.113971 C26.0335514,51.0265507 25.7713551,50.8584348 25.586972,50.6062609 C25.4008972,50.3557681 25.3247757,50.0632464 25.3569159,49.7286957 C25.3907477,49.3907826 25.5835888,49.0730435 25.9286729,48.7637101 C25.9523551,48.7468986 26.0453925,48.6813333 26.2111682,48.5703768 C26.3752523,48.4611014 26.5528692,48.340058 26.7524766,48.2122899 C26.9487009,48.0811594 27.1550748,47.9617971 27.3749813,47.8542029 C27.5931963,47.7449275 27.7775794,47.6709565 27.931514,47.6238841 C28.741785,47.4725797 29.379514,47.4893913 29.8514673,47.6726377 C30.321729,47.8575652 30.6617383,48.1551304 30.8664206,48.5703768 C31.074486,48.983942 31.1810561,49.4731594 31.1810561,50.038029 C31.1810561,50.6028986 31.1184673,51.1828986 30.9966729,51.7813913 C30.8765701,52.3782029 30.7209439,52.9666087 30.523028,53.5415652 C30.3268037,54.1182029 30.1390374,54.6141449 29.9648037,55.0243478 C29.8988318,55.1756522 29.7736542,55.4026087 29.5875794,55.7052174 C29.4015047,56.0128696 29.2018972,56.3289275 28.9802991,56.6567536 C29.5503645,56.4365217 30.0967477,56.2095652 30.6211402,55.9708406 C31.1455327,55.7304348 31.5176822,55.5572754 31.7358972,55.448 C33.3107664,54.709971 34.8518037,53.9652174 36.3590093,53.2154203 C37.8695981,52.4673043 39.4343178,51.7881159 41.0514766,51.1761739 C41.4879065,51.0265507 41.8651308,51.0131014 42.1831495,51.1442319 C42.4994766,51.2753623 42.7244579,51.4787826 42.8564019,51.7511304 C42.9866542,52.0201159 43.0086449,52.326087 42.9189907,52.6606377 C42.8344112,52.9985507 42.5958972,53.2809855 42.1966822,53.5247536 C41.2358598,53.8962899 40.2885701,54.2896812 39.3615794,54.7166957 C38.4328972,55.1369855 37.5092897,55.5774493 36.5924486,56.0330435 C35.6739159,56.492 34.7553832,56.9391884 33.8351589,57.3729275 C32.9149346,57.810029 31.9761028,58.2202319 31.0152804,58.6068986 C30.6888037,58.7413913 30.342028,58.8792464 29.9817196,59.033913 C29.6214112,59.1852174 29.2441869,59.3230725 28.8517383,59.4407536 C28.4559065,59.5601159 28.0634579,59.6441739 27.6676262,59.6845217 C27.2751776,59.729913 26.8928785,59.708058 26.5224206,59.6223188 C26.3042056,59.4911884 26.1316636,59.3617391 26.0132523,59.2474203 C25.8931495,59.1263768 25.7662804,58.9582609 25.6326449,58.7413913 C25.5277664,58.1546667 25.5751308,57.6251014 25.7815047,57.1594203 C25.9912617,56.6937391 26.2483832,56.2196522 26.5528692,55.7405217 L27.1449252,54.8646377 C27.1669159,54.8175652 27.1838318,54.7788986 27.1922897,54.7469565 C27.2058224,54.7166957 27.2328879,54.6763478 27.2751776,54.6309565 L27.2751776,54.6006957 C27.3411495,54.4931014 27.4003551,54.372058 27.4561776,54.2442899 C27.5103084,54.1131594 27.5593645,53.9904348 27.6016542,53.8828406 C27.7775794,53.5146667 27.9484299,53.0775652 28.1108224,52.5782609 C28.2765981,52.0789565 28.3899346,51.6435362 28.4559065,51.2753623 C28.4998879,51.1022029 28.5337196,50.934087 28.5540187,50.7693333 C28.5760093,50.6062609 28.5861589,50.4415072 28.5861589,50.2633043 L28.5861589,50.1657971 C28.3899346,50.2313623 28.198785,50.3423188 28.0127103,50.4936232 C27.8283271,50.6449275 27.6490187,50.776058 27.474785,50.8853333" id="Fill-22" sketch:type="MSShapeGroup"></path>
                <path d="M31.9152056,70.7734493 C31.5176822,70.5498551 31.2436449,70.2775072 31.0981682,69.958087 C30.9459252,69.6403478 30.9036355,69.3242899 30.9662243,69.0166377 C31.0288131,68.7106667 31.1962804,68.4450435 31.4669346,68.2248116 C31.740972,67.9978551 32.0995888,67.8936232 32.5444766,67.8936232 C33.1872804,68.0113043 33.8503832,68.1004058 34.5320935,68.1491594 C35.2138037,68.197913 35.8532243,68.3693913 36.446972,68.6686377 C37.3384393,69.0855652 38.0505981,69.6067246 38.5851402,70.2337971 C39.1179907,70.8642319 39.5324299,71.5551884 39.8301495,72.3066667 C40.1278692,73.0581449 40.325785,73.8617391 40.4222056,74.7224928 C40.5220093,75.5866087 40.5947477,76.4507246 40.6454953,77.3097971 C40.7199252,78.5151884 40.6657944,79.7037681 40.4814112,80.8721739 C40.2936449,82.0422609 40.0483645,83.2173913 39.7371121,84.4026087 C39.4258598,85.5844638 39.0909252,86.7696812 38.7323084,87.9649855 C38.3753832,89.1602899 38.0455234,90.3757681 37.7478037,91.6030145 C37.676757,91.9476522 37.5752617,92.3225507 37.4517757,92.7327536 C37.3249065,93.1362319 37.2403271,93.5514783 37.1895794,93.9717681 C37.4145607,94.3886957 37.4145607,94.8678261 37.1895794,95.4091594 C37.1405234,95.457913 37.0982336,95.5167536 37.0610187,95.5924058 C37.0221121,95.6646957 36.9798224,95.7403478 36.9307664,95.8126377 C36.4841869,96.3321159 36.0020841,96.5523478 35.4810748,96.4766957 C34.9634486,96.4044058 34.5388598,96.0732174 34.2191495,95.4814493 C34.093972,94.7198841 34.1311869,93.928058 34.3291028,93.1009275 C34.5287103,92.2737971 34.7164766,91.5055072 34.8856355,90.7893333 C35.1342991,89.7806377 35.3626636,88.8711304 35.5758037,88.0574493 C35.7838692,87.2471304 35.9936262,86.451942 36.2067664,85.6735652 C36.4148318,84.901913 36.6127477,84.1033623 36.8022056,83.2930435 C36.9865888,82.4827246 37.1658972,81.5564058 37.3384393,80.5241739 C37.438243,79.8584348 37.5431215,79.069971 37.6581495,78.1571014 C37.7664112,77.2475942 37.771486,76.3448116 37.676757,75.442029 C37.5752617,74.545971 37.3384393,73.7188406 36.9679813,72.9690435 C36.5958318,72.2175652 35.9885514,71.6829565 35.1461402,71.3635362 C34.6521963,71.1634783 34.1244206,71.0457971 33.5661963,70.992 C33.0113551,70.9432464 32.4582056,70.8709565 31.9152056,70.7734493" id="Fill-23" sketch:type="MSShapeGroup"></path>
                <path d="M47.6131495,81.5496812 C47.746785,80.9545507 47.8753458,80.3308406 47.993757,79.681913 C48.1155514,79.0346667 48.1984393,78.384058 48.2458037,77.730087 C48.2880935,77.0845217 48.2728692,76.4372754 48.1950561,75.8001159 C48.1155514,75.1595942 47.9447009,74.545971 47.6808131,73.9474783 C47.393243,73.8398841 47.1581121,73.6431884 46.9804953,73.3674783 C46.8045701,73.0984928 46.7588972,72.7370435 46.850243,72.2965797 C46.936514,71.9216812 47.1699533,71.6224348 47.5437944,71.4038841 C47.7907664,71.3181449 48.002215,71.266029 48.1781402,71.255942 C48.3540654,71.2424928 48.565514,71.2811594 48.8091028,71.3702609 C49.297972,71.656058 49.6904206,72.0595362 49.993215,72.5790145 C50.289243,73.0984928 50.5108411,73.66 50.6546262,74.2635362 C50.7984112,74.8670725 50.8812991,75.4790145 50.9066729,76.0993623 C50.926972,76.7129855 50.9168224,77.2644058 50.8711495,77.7502609 C50.6935327,79.6415652 50.346757,81.5026087 49.8240561,83.3350725 C49.3030467,85.1641739 48.8006449,86.989913 48.3117757,88.8190145 C48.9105981,88.1129275 49.5483271,87.4371014 50.2249626,86.7864928 C50.8999065,86.1392464 51.6239065,85.5911884 52.4003458,85.1507246 C52.6219439,85.0397681 52.8266262,84.9372174 53.0143925,84.8363478 C53.2055421,84.7371594 53.3865421,84.6463768 53.5607757,84.5572754 C53.8077477,83.256058 54.119,81.980058 54.4962243,80.7225507 C54.871757,79.4684058 55.3031121,78.2226667 55.7919813,76.9886957 C55.9273084,76.6373333 56.1032336,76.1817391 56.3265234,75.6151884 C56.5481215,75.0553623 56.7900187,74.4770435 57.0589813,73.881913 C57.3228692,73.2884638 57.6104393,72.7235942 57.92,72.1805797 C58.2329439,71.6392464 58.5408131,71.2155942 58.8520654,70.907942 C59.3172523,70.5330435 59.7773645,70.412 60.2324019,70.5464928 C60.6874393,70.6776232 61.0020748,71.0289855 61.1796916,71.603942 L61.1796916,71.6695072 C61.1796916,72.0006957 61.1001869,72.2764058 60.9479439,72.4932754 C60.9699346,72.4932754 60.9547103,72.5168116 60.9141121,72.5622029 C60.8684393,72.647942 60.8261495,72.7034203 60.7821682,72.7269565 C60.7348037,72.837913 60.6874393,72.9303768 60.6316168,73.006029 C60.5757944,73.0850435 60.5267383,73.1791884 60.4810654,73.2884638 C60.3254393,73.5961159 60.1630467,73.892 60.0006542,74.1811594 C59.8331869,74.4669565 59.672486,74.7662029 59.5168598,75.0704928 C59.4288972,75.2688696 59.3206355,75.5075942 59.2022243,75.7833043 C59.0787383,76.0590145 58.9518692,76.3448116 58.8182336,76.6406957 C58.6845981,76.9433043 58.557729,77.2324638 58.4376262,77.5165797 C58.3141402,77.8023768 58.2092617,78.0495072 58.1196075,78.2462029 C57.4091402,80.1173333 56.8695234,82.0489855 56.4889159,84.0277101 C57.2450561,83.9621449 57.9927383,84.0882319 58.7370374,84.4093333 C59.4779533,84.7270725 60.1139907,85.1675362 60.6468411,85.7290435 C61.1796916,86.293913 61.5721402,86.9411594 61.8275701,87.6825507 C62.083,88.4188986 62.1083738,89.1804638 61.9104579,89.9756522 C61.7311495,90.6144928 61.5230841,91.2953623 61.2811869,92.0064928 C61.034215,92.726029 60.7314206,93.4085797 60.3643458,94.0558261 C60.0006542,94.7064348 59.5608411,95.2965217 59.0516729,95.8227246 C58.5408131,96.3556522 57.9436822,96.7490435 57.2585888,97.0146667 C56.9473364,97.123942 56.6259346,97.1726957 56.2893084,97.165971 C55.9594486,97.1525217 55.6278972,97.1592464 55.2946542,97.1827826 C55.0273832,97.1357101 54.8227009,97.0768696 54.6789159,96.9978551 C54.5351308,96.9188406 54.3625888,96.7944348 54.1629813,96.6212754 C53.9853645,96.2665507 53.7874486,95.9252754 53.5607757,95.5924058 C53.3425607,95.2645797 53.1750935,94.9132174 53.0651402,94.5383188 C52.823243,93.7448116 52.7555794,92.916 52.8672243,92.0569275 C52.975486,91.1995362 53.0651402,90.3522319 53.1311121,89.5150145 C53.1547944,89.2258551 53.1717103,88.9434203 53.1835514,88.6542609 C53.1953925,88.3701449 53.1987757,88.0809855 53.1987757,87.7951884 C52.7115981,88.149913 52.1685981,88.6021449 51.5714673,89.1670145 C50.9709533,89.7285217 50.3890467,90.332058 49.8240561,90.986029 C49.2590654,91.6332754 48.7380561,92.2906087 48.261028,92.9496232 C47.7856916,93.6103188 47.4152336,94.2172174 47.1479626,94.7652754 L47.1479626,94.7988986 L47.1141308,94.7988986 C47.0684579,94.8678261 47.0397009,94.9333913 47.0329346,94.9989565 C47.0194019,95.0645217 47.0041776,95.12 46.9804953,95.162029 C46.7588972,95.4293333 46.5153084,95.5991304 46.2480374,95.6781449 C45.9841495,95.7537971 45.7287196,95.7605217 45.4851308,95.6949565 C45.2415421,95.626029 45.0300935,95.4915362 44.8541682,95.278029 C44.6765514,95.0712464 44.5665981,94.7888116 44.5209252,94.4374493 C44.6545607,93.3110725 44.8423271,92.2115942 45.0859159,91.133971 C45.3311963,90.0529855 45.5950841,88.9904928 45.8826542,87.9414493 C46.1702243,86.8991304 46.4645607,85.8433623 46.7656636,84.7875942 C47.0650748,83.7301449 47.3475701,82.6491594 47.6131495,81.5496812 L47.6131495,81.5496812 Z M59.0838131,88.0574493 C58.7742523,87.4858551 58.3428972,87.1008696 57.7863645,86.9008116 C57.233215,86.7041159 56.6563832,86.6385507 56.0592523,86.7041159 C55.9273084,87.7851014 55.8258131,88.8291014 55.7615327,89.8428406 C55.6938692,90.6615652 55.6278972,91.4584348 55.5602336,92.2401739 C55.4959533,93.021913 55.6465047,93.7868406 56.023729,94.5383188 C56.4889159,94.4929275 56.949028,94.2071304 57.405757,93.6758841 C57.8607944,93.1496812 58.2481682,92.5293333 58.5695701,91.8266087 C58.8875888,91.1205217 59.1058037,90.4177971 59.2191402,89.7083478 C59.3274019,89.0056232 59.2834206,88.4542029 59.0838131,88.0574493 L59.0838131,88.0574493 Z" id="Fill-24" sketch:type="MSShapeGroup"></path>
                <path d="M65.3223925,78.6833043 C65.0923364,78.9522899 64.8369065,79.1153623 64.5662523,79.1758841 C64.292215,79.2347246 64.045243,79.2011014 63.8337944,79.0901449 C63.6155794,78.9724638 63.4464206,78.7942609 63.3229346,78.5521739 C63.1926822,78.3084058 63.1588505,78.0125217 63.2180561,77.6611594 C63.531,77.0811594 63.8236449,76.5885797 64.0959907,76.1817391 C64.3683364,75.7732174 64.6711308,75.4386667 65.0026822,75.1730435 C65.3359252,74.9175072 65.7300654,74.7124058 66.188486,74.5644638 C66.6469065,74.4215652 67.2152804,74.3156522 67.9003738,74.2601739 C68.2099346,74.2198261 68.4788972,74.2803478 68.7055701,74.4333333 C68.9288598,74.588 69.1284673,74.7914203 69.3043925,75.0318261 C69.4803178,75.273913 69.6224112,75.5412174 69.7289813,75.8286957 C69.837243,76.1212174 69.9302804,76.3834783 70.0080935,76.6171594 C70.0859065,77.6846957 70.0960561,78.7186087 70.0368505,79.7306667 C69.9776449,80.7343188 69.8761495,81.7362899 69.7289813,82.7248116 C69.5835047,83.7133333 69.4075794,84.7085797 69.2012056,85.7055072 C68.9965234,86.7041159 68.7986075,87.7262609 68.6040748,88.7736232 C68.5465607,89.1249855 68.4585981,89.5116522 68.3384953,89.9353043 C68.2234673,90.3656812 68.1185888,90.8061449 68.0323178,91.2617391 C67.9426636,91.7190145 67.8868411,92.1678841 67.8547009,92.6150725 C67.8276355,93.0622609 67.8597757,93.4775072 67.9595794,93.8658551 L68.0475421,94.0390145 L68.1642617,94.1516522 C68.1845607,94.1516522 68.1930187,94.1651014 68.1930187,94.1835942 C68.6818879,94.3584348 69.2773271,94.4307246 69.9776449,94.4004638 C70.6813458,94.3752464 71.3681308,94.2962319 72.0413832,94.1684638 C72.7163271,94.0457391 73.3151495,93.8927536 73.8429252,93.717913 C74.3690093,93.5464348 74.6887196,93.390087 74.8071308,93.2555942 C75.0033551,93.1765797 75.2114206,92.8218551 75.4364019,92.1914203 C75.6630748,91.5643478 75.8998972,90.7557101 76.1536355,89.7772754 C76.4039907,88.7988406 76.6695701,87.6926377 76.9436075,86.462029 C77.2176449,85.2297391 77.4950654,83.9755942 77.7792523,82.6962319 C78.0617477,81.4151884 78.3425514,80.1543188 78.6267383,78.9136232 C78.9092336,77.6746087 79.1968037,76.5482319 79.4894486,75.5412174 C79.5689533,75.1326957 79.734729,74.8418551 79.9850841,74.6670145 C80.2422056,74.4921739 80.5044019,74.4215652 80.7784393,74.4467826 C81.0524766,74.4804058 81.2909907,74.6115362 81.4939813,74.8418551 C81.7003551,75.0738551 81.7917009,75.3966377 81.7730935,75.8034783 C81.3434299,77.878029 80.8613271,79.8752464 80.3234019,81.7951304 C79.7871682,83.7133333 79.2746168,85.7004638 78.7857477,87.7582029 C78.648729,88.3398841 78.5218598,88.9736812 78.3932991,89.6629565 C78.2664299,90.3488696 78.1006542,91.0314203 77.8942804,91.7156522 C77.6895981,92.3914783 77.4358598,93.0353623 77.134757,93.6456232 C76.830271,94.2558841 76.4445888,94.7753623 75.9777103,95.2023768 C75.6833738,95.4747246 75.2604766,95.7218551 74.7056355,95.9437681 C74.1491028,96.1673623 73.5299813,96.3455652 72.8448879,96.4834203 C72.1631776,96.617913 71.4510187,96.7036522 70.7084112,96.7288696 C69.9674953,96.7591304 69.2705607,96.7086957 68.6159159,96.5842899 C67.9629626,96.4598841 67.3759813,96.2396522 66.8617383,95.9303188 C66.3441121,95.6193043 65.978729,95.2023768 65.7655888,94.6761739 C65.5490654,94.1936812 65.4441869,93.6691594 65.4543364,93.0942029 C65.4678692,92.5226087 65.5236916,91.9442899 65.6319533,91.3642899 C65.7368318,90.7826087 65.8653925,90.2076522 66.0108692,89.6461449 C66.1580374,89.0846377 66.2815234,88.5702029 66.3779439,88.1062029 C66.455757,87.7195362 66.5487944,87.2723478 66.6570561,86.7696812 C66.7636262,86.2602899 66.8685047,85.7391304 66.9784579,85.1977971 C67.085028,84.6547826 67.1831402,84.1235362 67.2727944,83.6107826 C67.3590654,83.0997101 67.4301121,82.6491594 67.4910093,82.2591304 C67.5485234,81.9111304 67.6128037,81.4908406 67.6821589,80.9948986 C67.7481308,80.4989565 67.8005701,79.9895652 67.8428598,79.4684058 C67.8800748,78.9422029 67.875,78.4294493 67.8276355,77.9251014 C67.7768879,77.4224348 67.6669346,76.9954203 67.4910093,76.644058 C67.3353832,76.644058 67.1526916,76.6793623 66.9480093,76.7482899 C66.7433271,76.8172174 66.5437196,76.9466667 66.3508785,77.14 C66.1918692,77.3921739 66.0227103,77.6443478 65.8349439,77.8948406 C65.6522523,78.1470145 65.4814019,78.4109565 65.3223925,78.6833043" id="Fill-25" sketch:type="MSShapeGroup"></path>
                <path d="M74.1423364,100.662783 C74.2201495,100.531652 74.3081121,100.397159 74.4045327,100.266029 C74.5009533,100.129855 74.5804579,99.992 74.6396636,99.8491014 C74.3470187,99.8188406 74.1068131,99.7297391 73.9224299,99.5851594 C73.7380467,99.4372174 73.6280935,99.2775072 73.601028,99.0993043 C73.5688879,98.9227826 73.6230187,98.7412174 73.7634206,98.5613333 C73.8987477,98.378087 74.1423364,98.2385507 74.4924953,98.1511304 C74.6464299,98.1208696 74.7952897,98.0956522 74.9323084,98.062029 C75.0676355,98.0368116 75.2131121,98.0065507 75.3721215,97.9762899 C75.6816822,97.9594783 75.9388037,97.9863768 76.1333364,98.0553043 C76.3261776,98.1208696 76.5021028,98.2486377 76.657729,98.4402899 C76.7558411,98.5546087 76.8454953,98.6571594 76.9233084,98.7378551 C76.9994299,98.8168696 77.0501776,98.9295072 77.068785,99.0774493 C77.1262991,99.4876522 77.0231121,99.992 76.7626075,100.597217 C76.497028,101.197391 76.1705514,101.814377 75.781486,102.444812 C75.3890374,103.08029 74.9948972,103.680464 74.5956822,104.252058 C74.1947757,104.823652 73.8987477,105.285971 73.7008318,105.637333 C73.4690841,105.844116 73.2136542,105.968522 72.9413084,106.013913 C72.6689626,106.054261 72.4253738,106.034087 72.2088505,105.946667 C71.9974019,105.857565 71.8265514,105.71971 71.6996822,105.538145 C71.5711215,105.354899 71.5372897,105.127942 71.5948037,104.865681 C71.9855607,104.146145 72.4118411,103.440058 72.8668785,102.754145 C73.3252991,102.06487 73.7515794,101.365507 74.1423364,100.662783" id="Fill-26" sketch:type="MSShapeGroup"></path>
                <path d="M89.6423645,92.177971 C89.6592804,92.177971 89.6998785,92.1477101 89.7590841,92.0888696 C89.8758037,91.7408696 90.0584953,91.4954203 90.3139252,91.3508406 C90.5676636,91.2028986 90.824785,91.1575072 91.0903645,91.2028986 C91.3525607,91.2516522 91.5843084,91.3861449 91.7771495,91.6097391 C91.9716822,91.8333333 92.0579533,92.1393043 92.0393458,92.525971 C91.9835234,92.9933333 91.7940654,93.38 91.4845047,93.6876522 C91.1732523,94.0003478 90.8061776,94.2558841 90.3883551,94.4609855 C89.9671495,94.6644058 89.5341028,94.8308406 89.0858318,94.9552464 C88.6358692,95.0846957 88.2349626,95.1922899 87.8848037,95.2881159 C87.5718598,95.3469565 87.3231963,95.3469565 87.1388131,95.2881159 C86.9527383,95.2326377 86.7463645,95.0947826 86.5095421,94.8846377 C86.3150093,94.6106087 86.0951028,94.3449855 85.851514,94.0961739 C85.6045421,93.8456812 85.4370748,93.5531594 85.3389626,93.2253333 C85.1427383,92.6049855 85.0598505,91.8955362 85.0919907,91.102029 C85.1173645,90.3068406 85.2290093,89.4830725 85.4117009,88.6155942 C85.5977757,87.7514783 85.8329065,86.8688696 86.1120187,85.9694493 C86.3978972,85.0666667 86.7040748,84.1991884 87.0356262,83.361971 C87.3671776,82.5314783 87.6953458,81.7497391 88.0150561,81.0234783 C88.3398411,80.2955362 88.6274112,79.6684638 88.8794579,79.1456232 C89.1331963,78.6244638 89.4376822,78.141971 89.7861495,77.6914203 C90.138,77.2442319 90.4780093,76.802087 90.8129439,76.3548986 C90.948271,76.1817391 91.166486,75.98 91.4692804,75.7564058 C91.7720748,75.5378551 92.1087009,75.3495652 92.4808505,75.2049855 C92.853,75.0604058 93.2116168,74.9847536 93.5634673,74.9847536 C93.9136262,74.9847536 94.1978131,75.1326957 94.4109533,75.4218551 C94.5851869,75.6387246 94.7120561,75.8858551 94.7915607,76.1649275 C94.8676822,76.4507246 94.9285794,76.7415652 94.9657944,77.0508986 C95.0047009,77.3669565 95.0300748,77.6678841 95.0419159,77.9671304 C95.0503738,78.2697391 95.0740561,78.5252754 95.1129626,78.7387826 C95.1315701,78.8968116 95.1670935,79.1624348 95.2144579,79.5390145 C95.2652056,79.9172754 95.3074953,80.3173913 95.349785,80.7326377 C95.3886916,81.1495652 95.4309813,81.5463188 95.4766542,81.9228986 C95.5290935,82.3045217 95.5612336,82.5701449 95.5832243,82.7248116 C95.7168598,83.7133333 95.8606449,84.6984928 96.0078131,85.6769275 C96.1549813,86.6587246 96.3325981,87.6405217 96.5474299,88.6290435 L96.987243,90.2866667 C97.0261495,90.3824928 97.0684393,90.5337971 97.1191869,90.7405797 C97.1648598,90.9406377 97.2409813,91.1709565 97.3374019,91.4231304 C97.3763084,91.323942 97.4135234,91.2197101 97.4524299,91.102029 C97.4947196,90.986029 97.5319346,90.8784348 97.5725327,90.7826087 C97.8245794,90.121913 98.0495607,89.4830725 98.245785,88.8492754 C98.4403178,88.2188406 98.6365421,87.5715942 98.8310748,86.9142609 C99.2201402,85.5945507 99.6125888,84.2849275 99.9999626,82.9870725 C100.39072,81.6875362 100.838991,80.4064928 101.346467,79.1456232 C101.463187,78.8564638 101.596822,78.5017391 101.740607,78.0848116 C101.887776,77.6678841 102.065393,77.2576812 102.268383,76.8474783 C102.474757,76.444 102.713271,76.0691014 102.987308,75.7278261 C103.257963,75.389913 103.570907,75.1629565 103.922757,75.0452754 C104.645065,75.0284638 105.103486,75.3596522 105.298019,76.0354783 C105.316626,76.0556522 105.326776,76.0926377 105.326776,76.1548406 C105.308168,76.6928116 105.125477,77.0643478 104.773626,77.2576812 L104.508047,77.7805217 C104.293215,78.1671884 104.110523,78.5521739 103.953206,78.9287536 C103.795888,79.3070145 103.631804,79.7205797 103.452495,80.166087 C102.831682,81.6774493 102.305598,83.2173913 101.874243,84.7892754 C101.444579,86.3594783 100.977701,87.9296812 100.470224,89.5015652 C100.138673,90.5489275 99.8223458,91.5172754 99.5178598,92.4116522 C99.2133738,93.3009855 98.9274953,94.0003478 98.6534579,94.5063768 C98.5570374,94.6610435 98.4250935,94.814029 98.2610093,94.9686957 C98.0935421,95.1267246 97.9159252,95.2191884 97.7180093,95.2612174 C97.3695421,95.320058 97.0633645,95.2847536 96.8113178,95.1586667 C96.5575794,95.0308986 96.3427477,94.8543768 96.168514,94.6206957 C95.9908972,94.392058 95.8386542,94.1213913 95.7134766,93.8238261 C95.5882991,93.5178551 95.4749626,93.2354203 95.3751589,92.9630725 C95.243215,92.5394203 95.1281869,92.177971 95.0419159,91.8854493 C94.9522617,91.5962899 94.8659907,91.3172174 94.778028,91.0583188 C94.6883738,90.796058 94.605486,90.5203478 94.5276729,90.2278261 C94.4498598,89.9353043 94.3635888,89.5704928 94.2654766,89.1249855 C94.1267664,88.5012754 94.0015888,87.843942 93.8848692,87.1445797 C93.7681495,86.4452174 93.6598879,85.797971 93.5634673,85.1977971 C93.4078411,84.1891014 93.2742056,83.1904928 93.1659439,82.2036522 C93.0593738,81.2117681 92.9494206,80.2232464 92.8293178,79.2347246 C92.8107103,79.0598841 92.7819533,78.8564638 92.7413551,78.6244638 C92.7041402,78.3907826 92.6635421,78.141971 92.6246355,77.867942 L92.5383645,77.9536812 C91.9716822,78.5151884 91.4692804,79.1624348 91.0294673,79.8886957 C90.5930374,80.6166377 90.2022804,81.3782029 89.8588879,82.1733913 C89.5205701,82.9685797 89.2160841,83.7721739 88.9521963,84.5875362 C88.69,85.4012174 88.4616355,86.1762319 88.2637196,86.9142609 C88.1875981,87.2034203 88.0793364,87.6169855 87.9423178,88.149913 C87.8052991,88.6811594 87.6953458,89.246029 87.6056916,89.8361159 C87.517729,90.4278841 87.4855888,90.9994783 87.5075794,91.5508986 C87.5228037,92.1056812 87.6598224,92.5427826 87.9152523,92.8773333 C88.2062056,92.7781449 88.4988505,92.6772754 88.7914953,92.5730435 C89.0858318,92.4637681 89.3683271,92.336 89.6423645,92.177971 L89.6423645,92.177971 Z M94.8507664,101.604232 C94.576729,101.910203 94.2891589,102.081681 93.9880561,102.110261 C93.6852617,102.140522 93.4213738,102.068232 93.1963925,101.903478 C92.9731028,101.740406 92.8208598,101.510087 92.7413551,101.207478 C92.6635421,100.908232 92.7312056,100.583768 92.9494206,100.232406 C93.2606729,99.770087 93.7833738,99.3027246 94.5141402,98.8404058 C95.2449065,98.3747246 96.0399533,97.9477101 96.900972,97.5593623 C97.7569159,97.1693333 98.6094766,96.8381449 99.4586542,96.5557101 C100.307832,96.2732754 101.025065,96.0732174 101.612047,95.9572174 C102.023103,95.9404058 102.341121,96.0362319 102.576252,96.2497391 C102.809692,96.4632464 102.943327,96.7053333 102.972084,96.976 C103.000841,97.2483478 102.928103,97.5106087 102.752178,97.7594203 C102.576252,98.0132754 102.283607,98.1797101 101.874243,98.2553623 C101.639112,98.2957101 101.319402,98.3848116 100.906654,98.5193043 C100.495598,98.6571594 100.054093,98.8101449 99.5753738,98.9849855 C99.101729,99.1581449 98.6094766,99.3598841 98.1121495,99.5784348 C97.616514,99.7986667 97.1496355,100.028986 96.7098224,100.266029 C96.2683178,100.494667 95.8843271,100.73171 95.5510841,100.962029 C95.2229159,101.194029 94.9844019,101.407536 94.8507664,101.604232 L94.8507664,101.604232 Z" id="Fill-27" sketch:type="MSShapeGroup"></path>
                <path d="M112.377318,74.9006957 C112.451748,74.4921739 112.620907,74.2046957 112.876336,74.0264928 C113.126692,73.8533333 113.390579,73.7810435 113.664617,73.8096232 C113.938654,73.8398841 114.180551,73.9710145 114.395383,74.2046957 C114.610215,74.4333333 114.710019,74.7527536 114.68972,75.1629565 C114.454589,77.0996522 114.112888,79.0010435 113.664617,80.8637681 C113.216346,82.7248116 112.815439,84.606029 112.461897,86.5006957 C112.248757,87.7481159 112.069449,88.9602319 111.923972,90.142087 C111.776804,91.323942 111.820785,92.5394203 112.054224,93.7767536 C112.191243,93.875942 112.324879,93.9717681 112.461897,94.0692754 C112.600607,94.1651014 112.737626,94.2592464 112.876336,94.3584348 C113.069178,94.6509565 113.160523,94.9367536 113.150374,95.2191884 C113.143607,95.5016232 113.059028,95.7302609 112.905093,95.9151884 C112.747776,96.0984348 112.531252,96.2194783 112.257215,96.2766377 C111.984869,96.3388406 111.692224,96.2884058 111.380972,96.1354203 C111.342065,96.1118841 111.264252,96.0664928 111.149224,95.9874783 C111.032505,95.9118261 110.898869,95.8193623 110.753393,95.7117681 C110.607916,95.6024928 110.464131,95.5016232 110.328804,95.4057971 C110.191785,95.309971 110.093673,95.2124638 110.036159,95.1166377 C109.819636,94.8207536 109.669084,94.4273623 109.581121,93.9213333 C109.49485,93.4153043 109.450869,92.8941449 109.450869,92.3528116 C109.450869,91.8131594 109.471168,91.2852754 109.508383,90.7826087 C109.548981,90.2765797 109.586196,89.8798261 109.626794,89.5906667 C109.76043,88.3466087 109.956654,87.1176812 110.210393,85.8937971 C110.464131,84.6749565 110.72971,83.4510725 111.002056,82.2288696 C111.274402,81.0066667 111.534907,79.7928696 111.776804,78.5807536 C112.020393,77.3703188 112.221692,76.1413913 112.377318,74.9006957" id="Fill-28" sketch:type="MSShapeGroup"></path>
                <path d="M122.82457,72.5487536 C122.914224,72.0864348 123.100299,71.7586087 123.389561,71.5585507 C123.677131,71.3601739 123.976542,71.2777971 124.287794,71.3114203 C124.597355,71.3433623 124.874776,71.4913043 125.120056,71.7586087 C125.361953,72.0242319 125.473598,72.3856812 125.453299,72.848 C125.343346,74.8536232 125.192794,76.8474783 125.003336,78.8278841 C124.81557,80.809971 124.653178,82.8071884 124.521234,84.8094493 C124.433271,85.797971 124.348692,86.8066667 124.27257,87.8304928 C124.194757,88.8576812 124.189682,89.8731014 124.253963,90.8868406 C124.675168,89.6326957 125.047318,88.3617391 125.367028,87.0722899 C125.691813,85.7845217 126.031822,84.5085217 126.40228,83.2375652 C126.76428,81.9733333 127.192252,80.7376812 127.67943,79.5356522 C128.166607,78.3386667 128.799262,77.1887536 129.574009,76.085913 C130.194822,75.5563478 130.851159,75.5244058 131.536252,75.9867246 C131.691879,76.1834203 131.818748,76.338087 131.918551,76.4507246 C132.020047,76.5616812 132.114776,76.676 132.202738,76.7953623 C132.289009,76.9164058 132.344832,77.0122319 132.366822,77.0777971 C132.522449,77.4056232 132.644243,77.878029 132.733897,78.4798841 C132.82186,79.0867826 132.887832,79.7794203 132.933505,80.5645217 C132.975794,81.3462609 133.004551,82.1801159 133.016393,83.056 C133.028234,83.9369275 133.021467,84.8128116 132.999477,85.6836522 C132.975794,86.5528116 132.957187,87.390029 132.933505,88.1953043 C132.909822,89.0005797 132.887832,89.7083478 132.867533,90.3253333 C133.021467,89.7974493 133.158486,89.2527536 133.283664,88.6912464 C133.403766,88.1263768 133.515411,87.5783188 133.616907,87.0386667 C133.713327,86.5006957 133.809748,85.987942 133.896019,85.502087 C133.983981,85.0162319 134.073636,84.5774493 134.164981,84.1823768 C134.430561,83.0375072 134.733355,81.9077681 135.078439,80.7948406 C135.421832,79.681913 135.758458,78.5673043 136.091701,77.4577391 C136.423252,76.3448116 136.715897,75.2217971 136.971327,74.0853333 C137.228449,72.9505507 137.387458,71.804 137.455121,70.6355942 C137.541393,70.1715942 137.732542,69.8404058 138.020112,69.6437101 C138.305991,69.4470145 138.605402,69.3612754 138.918346,69.3965797 C139.227907,69.4268406 139.503636,69.5781449 139.747224,69.8404058 C139.992505,70.106029 140.102458,70.4674783 140.08385,70.9297971 C140.014495,72.1654493 139.847028,73.3607536 139.58314,74.5157101 C139.315869,75.6757101 139.01815,76.823942 138.683215,77.9671304 C138.351664,79.1136812 138.008271,80.2585507 137.654729,81.4051014 C137.299495,82.549971 136.989935,83.7166957 136.722664,84.9086377 C136.54843,85.6802899 136.372505,86.5427246 136.208421,87.4993043 C136.040953,88.4609275 135.841346,89.425913 135.606215,90.3925797 C135.376159,91.3642899 135.093664,92.2922899 134.760421,93.1833043 C134.430561,94.0793623 134.019505,94.8207536 133.530636,95.4158841 C133.287047,95.6781449 133.058682,95.8563478 132.850617,95.9437681 C132.639168,96.0328696 132.356673,96.0564058 131.999748,96.0093333 C131.556551,95.8782029 131.221617,95.6781449 130.991561,95.4158841 C130.754738,95.1502609 130.57543,94.8375652 130.455327,94.4761159 C130.333533,94.1113043 130.260794,93.728 130.237112,93.3346087 C130.216813,92.9361739 130.208355,92.5427826 130.208355,92.1443478 C130.228654,90.1622609 130.250645,88.2053913 130.274327,86.2771014 C130.294626,84.3504928 130.260794,82.4070725 130.172832,80.4485217 L130.172832,80.4787826 C129.951234,81.1193043 129.727944,81.7631884 129.508037,82.4137971 C129.288131,83.066087 129.088523,83.7301449 128.909215,84.4126957 C128.665626,85.3154783 128.410196,86.2115362 128.146308,87.1042319 C127.880729,87.9986087 127.623607,88.8946667 127.380019,89.7974493 C127.270065,90.1942029 127.119514,90.7271304 126.931748,91.3995942 C126.743981,92.0737391 126.517308,92.7462029 126.250037,93.4153043 C125.984458,94.0894493 125.685047,94.6963478 125.353495,95.2343188 C125.020252,95.773971 124.653178,96.121971 124.253963,96.2732754 C123.83614,96.3422029 123.491056,96.3085797 123.223785,96.174087 C122.958206,96.0463188 122.714617,95.7891014 122.491327,95.4158841 C122.139477,94.5551304 121.900963,93.6691594 121.779168,92.7562899 C121.657374,91.840058 121.596477,90.9204638 121.596477,89.9941449 C121.596477,89.0711884 121.628617,88.1465507 121.692897,87.2235942 C121.762252,86.293913 121.826533,85.3810435 121.892505,84.4782609 C122.027832,82.476 122.186841,80.4855072 122.377991,78.5151884 C122.564065,76.5415072 122.714617,74.556058 122.82457,72.5487536" id="Fill-29" sketch:type="MSShapeGroup"></path>
                <path d="M137.077897,59.845913 C137.145561,59.4373913 137.307953,59.1263768 137.558308,58.9095072 C137.810355,58.696 138.084393,58.5816812 138.382112,58.5715942 C138.676449,58.5581449 138.957252,58.6472464 139.219449,58.8237681 C139.479953,59.0053333 139.669411,59.2995362 139.782748,59.708058 C139.782748,60.1636522 139.79628,60.752058 139.818271,61.4766377 C139.83857,62.2028986 139.809813,62.9224348 139.732,63.6352464 C139.652495,64.3497391 139.469804,64.9902609 139.182234,65.5584928 C138.898047,66.1267246 138.451467,66.4646377 137.832346,66.5789565 C137.422981,66.668058 137.069439,66.6529275 136.775103,66.5268406 C136.477383,66.4024348 136.142449,66.2158261 135.778757,65.9653333 C135.367701,65.6509565 135.009084,65.2928696 134.701215,64.8961159 C134.393346,64.4976812 134.082093,64.1076522 133.762383,63.7193043 C133.601682,64.1765797 133.457897,64.6237681 133.33272,65.0625507 C133.207542,65.5063768 132.962262,65.8964058 132.600262,66.2410435 C132.187514,66.6462029 131.69357,66.921913 131.126888,67.0732174 C130.555131,67.2194783 129.978299,67.2463768 129.398084,67.153913 C128.816178,67.0664928 128.276561,66.8714783 127.772467,66.5789565 C127.270065,66.2847536 126.882692,65.8762319 126.610346,65.3550725 C126.473327,65.0827246 126.336308,64.8389565 126.19929,64.6237681 C126.062271,64.4052174 126.004757,64.1530435 126.026748,63.8571594 C126.094411,62.5677101 126.500393,61.4934493 127.241308,60.6461449 C127.983916,59.7921159 128.934589,59.0877101 130.100093,58.5194783 C131.422916,57.8587826 132.793103,57.3241739 134.205579,56.9038841 C135.619748,56.4835942 137.023766,56.0464928 138.414252,55.5925797 C139.234673,55.3202319 140.075393,55.0377971 140.929645,54.7435942 C141.782206,54.4510725 142.643224,54.1787246 143.512701,53.9248696 C144.378794,53.6794203 145.251654,53.4625507 146.13128,53.2809855 C147.009215,53.0977391 147.890533,52.9867826 148.780308,52.9397101 C149.259028,52.9178551 149.637944,53.0321739 149.908598,53.2809855 C150.186019,53.5314783 150.338262,53.813913 150.375477,54.1316522 C150.407617,54.4510725 150.321346,54.752 150.116664,55.0512464 C149.908598,55.3437681 149.568589,55.5371014 149.089869,55.6295652 C148.247458,55.6715942 147.40843,55.7808696 146.574477,55.9506667 C145.740523,56.1221449 144.908262,56.3322899 144.076,56.5811014 C143.24543,56.8282319 142.418243,57.0972174 141.596131,57.3796522 C140.774019,57.6654493 139.963748,57.9377971 139.167009,58.2135072 C138.459925,58.4371014 137.746075,58.6506087 137.028841,58.843942 C136.309916,59.033913 135.599449,59.2642319 134.888981,59.5365797 C134.386579,59.7181449 133.841888,59.9081159 133.24814,60.1014493 C132.652701,60.2914203 132.077561,60.5251014 131.519336,60.7974493 C130.959421,61.0664348 130.441794,61.3925797 129.963075,61.7657971 C129.484355,62.1406957 129.108822,62.5962899 128.833093,63.1426667 C128.741748,63.3225507 128.724832,63.5007536 128.780654,63.6705507 C128.838168,63.842029 128.934589,63.9849275 129.071607,64.1110145 C129.208626,64.2387826 129.371019,64.3346087 129.552019,64.4035362 C129.73471,64.4691014 129.907252,64.4909565 130.066262,64.4691014 C130.157607,64.4691014 130.237112,64.4455652 130.304776,64.4035362 C130.372439,64.3564638 130.453636,64.3144348 130.544981,64.2656812 C130.638019,64.1765797 130.71414,64.0908406 130.781804,64.0084638 C130.851159,63.9294493 130.900215,63.8453913 130.920514,63.7562899 C131.013551,63.4604058 131.113355,63.1325797 131.228383,62.7711304 C131.34172,62.4063188 131.48043,62.0549565 131.636056,61.7136812 C131.80014,61.3724058 131.996364,61.0731594 132.23657,60.8142609 C132.476776,60.5553623 132.793103,60.3872464 133.180477,60.3216812 C133.56785,60.2527536 133.924776,60.3082319 134.254636,60.4897971 C134.586187,60.6696812 134.895748,60.9050435 135.179935,61.1857971 C135.464121,61.4715942 135.728009,61.7792464 135.966523,62.1037101 C136.208421,62.4365797 136.416486,62.7122899 136.600869,62.9392464 C136.666841,63.0064928 136.739579,63.0771014 136.805551,63.1426667 C136.874907,63.2115942 136.930729,63.2805217 136.978093,63.3494493 C137.093121,62.7812174 137.135411,62.1961739 137.116804,61.596 C137.093121,60.9975072 137.077897,60.4124638 137.077897,59.845913" id="Fill-30" sketch:type="MSShapeGroup"></path>
                <path d="M145.654252,73.9542029 C145.329467,74.3257391 144.972542,74.5325217 144.588551,74.5644638 C144.197794,74.6048116 143.864551,74.5257971 143.576981,74.3257391 C143.291103,74.1290435 143.098262,73.8432464 142.995075,73.4717101 C142.898654,73.0984928 142.983234,72.7034203 143.260654,72.2797681 C143.982963,71.2424928 144.818607,70.3817391 145.764206,69.7193623 C146.713187,69.0485797 147.76028,68.4551304 148.907178,67.9322899 C149.103402,67.8347826 149.311467,67.7221449 149.522916,67.5977391 C149.737748,67.4733333 149.964421,67.4044058 150.216467,67.3775072 C150.590308,67.3287536 150.948925,67.3052174 151.299084,67.3052174 L152.383393,67.3052174 C152.758925,67.2766377 153.06172,67.322029 153.300234,67.4296232 C153.537056,67.5456232 153.768804,67.7490435 153.992093,68.0482899 C154.140953,68.4652174 154.315187,68.872058 154.518178,69.252 C154.714402,69.6403478 154.837888,70.053913 154.886944,70.4977391 L154.886944,71.0911884 C156.137028,69.9295072 157.414178,68.8064928 158.720084,67.7322319 C160.031065,66.6529275 161.360654,65.6408696 162.703776,64.7011014 C163.128364,64.5531594 163.512355,64.527942 163.864206,64.6254493 C164.212673,64.7246377 164.481636,64.8927536 164.66771,65.1281159 C164.853785,65.3651594 164.941748,65.6543188 164.929907,66.0023188 C164.916374,66.3503188 164.760748,66.6848696 164.46472,67.0026087 C163.887888,67.4044058 163.140206,67.9457391 162.219981,68.6417391 C161.294682,69.3343768 160.369383,70.074087 159.432243,70.8507826 C158.496794,71.6291594 157.622243,72.4041739 156.813664,73.1724638 C156.003393,73.9407536 155.411336,74.6249855 155.039187,75.2150725 C155.587262,75.4151304 156.123495,75.6387246 156.647888,75.8892174 C157.170589,76.1346667 157.644234,76.4692174 158.065439,76.8895072 C158.665953,77.4611014 159.063477,78.1369275 159.264776,78.9153043 C159.464383,79.6970435 159.538813,80.5342609 159.489757,81.4252754 C159.437318,82.3146087 159.283383,83.2241159 159.021187,84.1571594 C158.758991,85.0851594 158.461271,85.9795362 158.124645,86.8318841 C157.78971,87.685913 157.431093,88.4777391 157.060636,89.2124058 C156.683411,89.942029 156.372159,90.5556522 156.123495,91.0515942 C155.922196,91.4231304 155.639701,91.9392464 155.262477,92.5881739 C154.886944,93.2488696 154.458972,93.8826667 153.973486,94.4862029 C153.488,95.0947826 152.958533,95.5890435 152.383393,95.974029 C151.811636,96.3573333 151.224654,96.4632464 150.625832,96.2884058 C149.82571,96.0429565 149.279327,95.5671884 148.981607,94.8577391 C148.680505,94.1516522 148.514729,93.38 148.475822,92.5394203 C148.438607,91.6954783 148.475822,90.8515362 148.587467,90.0075942 C148.699112,89.1703768 148.780308,88.497913 148.832748,88.001971 C148.907178,87.358087 149.057729,86.5494493 149.279327,85.5710145 C149.506,84.5892174 149.749589,83.5368116 150.025318,82.4104348 C150.30443,81.2806957 150.583542,80.1106087 150.867729,78.8968116 C151.155299,77.6846957 151.392121,76.5230145 151.579888,75.4218551 C151.765963,74.3190145 151.870841,73.3103188 151.899598,72.3957681 C151.92328,71.4795362 151.835318,70.7331014 151.63571,70.1648696 C151.062262,70.1884058 150.487121,70.3128116 149.915364,70.5330435 C149.340224,70.76 148.788766,71.0525217 148.252533,71.4106087 C147.716299,71.7686957 147.222355,72.1688116 146.774084,72.6176812 C146.324121,73.0615072 145.953664,73.5086957 145.654252,73.9542029 L145.654252,73.9542029 Z M155.861299,78.8598261 C155.587262,78.5874783 155.286159,78.3907826 154.964757,78.2663768 C154.639972,78.141971 154.301654,78.0192464 153.95657,77.8948406 C153.904131,78.0915362 153.866916,78.2663768 153.843234,78.4143188 C153.816168,78.5622609 153.778953,78.7253333 153.731589,78.8968116 C153.603028,79.5171594 153.449093,80.2366957 153.261327,81.0537391 C153.073561,81.8707826 152.884103,82.7147246 152.686187,83.5822029 C152.484888,84.448 152.29543,85.302029 152.122888,86.1426087 C151.946963,86.9865507 151.811636,87.7296232 151.71014,88.3751884 C151.583271,89.0947246 151.491925,89.8243478 151.429336,90.5657391 C151.368439,91.3088116 151.425953,92.0401159 151.596804,92.7596522 C152.122888,92.1157681 152.613449,91.3962319 153.073561,90.6027246 C153.537056,89.8108986 153.959953,89.0056232 154.349019,88.1885797 C154.733009,87.3715362 155.08486,86.5494493 155.392729,85.7357681 C155.707364,84.9187246 155.974636,84.1504348 156.196234,83.4308986 C156.421215,82.7147246 156.559925,81.9329855 156.608981,81.0924058 C156.659729,80.2484638 156.412757,79.5037101 155.861299,78.8598261 L155.861299,78.8598261 Z" id="Fill-31" sketch:type="MSShapeGroup"></path>
                <path d="M176.862374,60.2426667 C177.395224,60.056058 177.88071,60.0224348 178.322215,60.1502029 C178.762028,60.2746087 179.100346,60.4914783 179.33886,60.8041739 C179.570607,61.1151884 179.680561,61.4968116 179.665336,61.954087 C179.648421,62.4063188 179.453888,62.8501449 179.076664,63.2855652 C178.197037,63.9109565 177.364776,64.3564638 176.578187,64.6187246 C175.79329,64.886029 175.062523,65.1718261 174.387579,65.4643478 C173.709252,65.761913 173.090131,66.1435362 172.52514,66.6125797 C171.961841,67.0782609 171.47128,67.8146087 171.065299,68.8132174 C170.686383,69.7193623 170.507075,70.6473623 170.522299,71.6005797 C170.537523,72.5521159 170.64071,73.512058 170.828477,74.4804058 C171.019626,75.4521159 171.237841,76.4070145 171.488196,77.3602319 C171.740243,78.3117681 171.914477,79.228 172.007514,80.0988406 C172.100551,80.820058 172.154682,81.5530435 172.17329,82.3011594 C172.186822,83.0526377 172.212196,83.8024348 172.242645,84.553913 C172.305234,85.7055072 172.180056,86.7696812 171.867112,87.7346667 C171.550785,88.7046957 171.132963,89.6226087 170.615336,90.5001739 C170.099402,91.3743768 169.509037,92.2233623 168.845935,93.0521739 C168.19129,93.8793043 167.545103,94.7131594 166.917523,95.5571014 C166.474327,96.0564058 166.014215,96.3287536 165.528729,96.3741449 C165.03986,96.4228986 164.615271,96.311942 164.256654,96.0463188 C163.894654,95.784058 163.645991,95.4091594 163.525888,94.9233043 C163.395636,94.4408116 163.508972,93.917971 163.854056,93.3564638 C164.545916,92.4183768 165.149813,91.6467246 165.669131,91.0381449 C166.186757,90.4278841 166.635028,89.8310725 167.012252,89.2325797 C167.387785,88.6424928 167.695654,87.9918841 167.930785,87.2891594 C168.162533,86.5897971 168.346916,85.6903768 168.470402,84.595942 C168.661551,83.161913 168.615879,81.7194783 168.331692,80.2652754 C168.049196,78.8110725 167.749785,77.3753623 167.43515,75.9547826 C167.122206,74.5358841 166.917523,73.1035362 166.822794,71.6695072 C166.728065,70.2337971 166.964888,68.7997681 167.53157,67.3606957 C168.00014,66.2091014 168.566822,65.3096812 169.226542,64.6691594 C169.886262,64.0286377 170.623794,63.5007536 171.440832,63.0771014 C172.257869,62.6534493 173.122271,62.2449275 174.037421,61.8582609 C174.947495,61.4715942 175.886327,60.9285797 176.862374,60.2426667" id="Fill-32" sketch:type="MSShapeGroup"></path>
            </g>
        </g>
    </g>
</svg>