<?xml version="1.0" encoding="UTF-8" standalone="no"?>
<svg width="205px" height="102px" viewBox="0 0 205 102" version="1.1" xmlns="http://www.w3.org/2000/svg" xmlns:xlink="http://www.w3.org/1999/xlink" xmlns:sketch="http://www.bohemiancoding.com/sketch/ns">
    <!-- Generator: Sketch 3.3.3 (12072) - http://www.bohemiancoding.com/sketch -->
    <title>logoWordmark-en</title>
    <desc>Created with Sketch.</desc>
    <defs></defs>
    <g id="Page-1" stroke="none" stroke-width="1" fill="none" fill-rule="evenodd" sketch:type="MSPage">
        <g id="Desktop" sketch:type="MSArtboardGroup" transform="translate(-560.000000, -236.000000)" fill="#FFFFFF">
            <g id="logoWordmark-en" sketch:type="MSLayerGroup" transform="translate(559.000000, 236.000000)">
                <path d="M128.165741,39.7440339 C126.112845,36.0238136 125.294172,37.7206949 125.294172,37.7206949 C125.294172,37.7206949 120.108655,46.7672373 119.614966,47.821678 C119.1195,48.8708814 120.513552,48.6299661 120.513552,48.6299661 L123.074345,48.6299661 C121.905828,50.3198644 117.641983,56.0005763 112.948379,56.1402373 C107.441431,56.2938644 103.834655,52.1756102 103.747638,48.130678 L103.671276,48.130678 L103.685483,26.4256102 L113.42431,26.4291017 L113.431414,21.5008136 L103.685483,21.4990678 L103.685483,20.254339 C107.972414,18.9991356 111.110362,15.0973559 111.110362,10.4850508 C111.113914,4.85845763 106.459379,0.282813559 100.737552,0.275830508 C95.0210517,0.272338983 90.3558621,4.84798305 90.3558621,10.4710847 C90.3523103,15.2317797 93.6927069,19.2278305 98.1803103,20.3521017 L98.1803103,21.4955763 L87.8447931,21.4885932 L87.8412414,26.4151356 L98.1767586,26.4186271 L98.1625517,48.1271864 C98.0755345,52.1686271 94.4581034,56.2868814 88.9511552,56.1227797 C84.2611034,55.9901017 80.0061379,50.2901864 78.8393966,48.6020339 L81.3930862,48.6020339 C81.3930862,48.6020339 82.7871379,48.8446949 82.3058793,47.7937458 C81.8050862,46.7427966 76.6337759,37.6945085 76.6337759,37.6945085 C76.6337759,37.6945085 75.8115517,35.9923898 73.7551034,39.7091186 C71.6986552,43.4258475 70.7929655,50.3757288 70.7929655,50.3757288 C70.7929655,50.3757288 71.1197241,51.1822712 71.5281724,50.3757288 L73.8137069,49.1397288 C76.0477414,58.0064576 94.1597586,64.0136271 96.0954483,64.8550847 C98.1501207,65.7419322 100.039638,68.8965254 100.039638,68.8965254 L101.847466,68.8965254 C101.847466,68.8965254 103.736983,65.7454237 105.793431,64.8585763 C107.729121,64.0241017 125.848241,58.0326441 128.092931,49.1746441 L130.378466,50.4088983 C130.783362,51.2241695 131.120776,50.4123898 131.120776,50.4123898 C131.120776,50.4123898 130.218638,43.4642542 128.165741,39.7440339 L128.165741,39.7440339 Z M95.3602414,10.4780678 C95.3673448,7.56264407 97.7789655,5.19713559 100.737552,5.20411864 C103.69969,5.20411864 106.105983,7.57311864 106.098879,10.4850508 C106.098879,13.3934915 103.689034,15.7555085 100.726897,15.7502712 C97.7718621,15.7502712 95.3602414,13.3830169 95.3602414,10.4780678 L95.3602414,10.4780678 Z" id="Fill-1" sketch:type="MSShapeGroup"></path>
                <path d="M2.14168966,83.5853729 C2.25356897,80.0536949 2.45068966,76.5639153 2.73837931,73.1317458 C3.02606897,69.6873559 3.23739655,66.2202712 3.37591379,62.7147797 C3.01896552,62.7147797 2.70286207,62.6187627 2.42937931,62.4319661 C2.15589655,62.2364407 1.96410345,61.9990169 1.854,61.7022373 C1.74567241,61.4054576 1.72968966,61.0807458 1.81137931,60.7298475 C1.89484483,60.3824407 2.11327586,60.0577288 2.472,59.7609492 C3.07401724,59.2738814 3.51443103,58.9194915 3.78968966,58.6907966 C4.05962069,58.4586102 4.30291379,58.261339 4.51068966,58.1042203 C4.71136207,57.9383729 4.96531034,57.7847458 5.27075862,57.6381017 C5.57265517,57.4879661 6.05036207,57.2522881 6.7092069,56.9275763 C7.77827586,56.4160678 8.88463793,56.1751525 10.0194138,56.201339 C11.1595172,56.2292712 12.1628793,56.5016102 13.0259483,57.0305763 C13.8890172,57.5560508 14.5176724,58.2997458 14.9154655,59.2529322 C15.3150345,60.2113559 15.3221379,61.351339 14.9367759,62.6693898 C14.7769483,63.2088305 14.5940345,63.7343051 14.4022414,64.2283559 C14.2122241,64.7258983 14.0044483,65.2339153 13.7860172,65.7454237 C14.5514138,65.6913051 15.2599828,65.7593898 15.9046207,65.9461864 C16.5492586,66.1347288 17.098,66.4611864 17.5526207,66.9185763 C18.0036897,67.3794576 18.3144655,67.9817458 18.4956034,68.7394068 C18.6767414,69.4970678 18.6838448,70.4135932 18.5169138,71.4907288 C18.321569,72.6499153 17.9894828,73.7724407 17.5064483,74.8495763 C17.0287414,75.9267119 16.4604655,76.9741695 15.8016207,77.9832203 C15.1445517,78.9922712 14.4164483,79.957678 13.6226379,80.8707119 C12.8252759,81.7924746 12.0296897,82.6548814 11.2358793,83.466661 C10.8505172,83.8402542 10.3958966,84.2714576 9.87556897,84.7550339 C9.35701724,85.2421017 8.79051724,85.6785424 8.19027586,86.0748305 C7.58648276,86.4623898 6.94894828,86.7486949 6.27589655,86.9372373 C5.60284483,87.1310169 4.94044828,87.1310169 4.28160345,86.9372373 C3.9797069,86.8307458 3.68491379,86.6334746 3.39722414,86.3332034 C3.10953448,86.0364237 2.85203448,85.7850339 2.63360345,85.563322 C2.27665517,85.2421017 2.07243103,84.9051695 2.01737931,84.5542712 C1.96410345,84.2051186 2.00672414,83.8821525 2.14168966,83.5853729 L2.14168966,83.5853729 Z M5.96689655,72.8646441 C5.82837931,74.6715085 5.71472414,76.4801186 5.62060345,78.2869831 C5.51937931,80.0938475 5.44656897,81.8972203 5.39506897,83.7040847 C5.86034483,83.6499661 6.37001724,83.4212712 6.93474138,83.0197458 C7.49768966,82.6129831 8.08727586,82.1049661 8.7035,81.4991864 C9.3215,80.8951525 9.9252931,80.2195424 10.5148793,79.479339 C11.1044655,78.7391356 11.6585345,78.0041695 12.1788621,77.2779322 C12.6991897,76.5482034 13.1573621,75.8516441 13.5391724,75.19 C13.9245345,74.5283559 14.2122241,73.983678 14.4022414,73.5507288 C14.7876034,72.6097627 15.0575345,71.761322 15.2280172,71.003661 C15.3913966,70.2494915 15.3700862,69.6838644 15.1623103,69.3085254 C14.9580862,68.9296949 14.535431,68.767339 13.8890172,68.8214576 C13.2443793,68.8720847 12.2907414,69.2229831 11.0281034,69.870661 C9.84893103,71.1642712 8.47796552,72.166339 6.9152069,72.8646441 C6.58489655,72.9466949 6.2687931,72.9466949 5.96689655,72.8646441 L5.96689655,72.8646441 Z M6.66836207,60.5692373 C6.61331034,62.0252034 6.54937931,63.4689492 6.48012069,64.8969831 C6.41441379,66.3250169 6.32206897,67.7705085 6.2172931,69.2229831 C6.65060345,68.8493898 7.10522414,68.5037288 7.57405172,68.1947288 C8.03755172,67.8839831 8.50637931,67.5802203 8.97165517,67.2869322 C9.65536207,66.5030847 10.2271897,65.6598814 10.6782586,64.757322 C11.1328793,63.8530169 11.4685172,62.9434746 11.6905,62.0252034 C11.9053793,61.0807458 11.8609828,60.4191017 11.5448793,60.0437627 C11.2287759,59.666678 10.7954655,59.4641695 10.2449483,59.4379831 C9.6962069,59.4100508 9.08886207,59.5200339 8.41581034,59.7609492 C7.74275862,60.0036102 7.16027586,60.2689661 6.66836207,60.5692373 L6.66836207,60.5692373 Z" id="Fill-2" sketch:type="MSShapeGroup"></path>
                <path d="M39.5147069,85.5598305 C39.3655345,85.8967627 39.1542069,86.1394237 38.8771724,86.2895593 C38.5983621,86.4396949 38.3248793,86.5007966 38.0513966,86.4728644 C37.7779138,86.4431864 37.5204138,86.3332034 37.2877759,86.1394237 C37.0551379,85.938661 36.9166207,85.6610847 36.8757759,85.3066949 C36.937931,84.386678 37.0764483,83.4893559 37.2877759,82.6129831 C37.4991034,81.7296271 37.7601552,80.8672203 38.0691552,80.0152881 C38.3728276,79.1668475 38.7066897,78.3201525 39.0671897,77.485678 C39.4276897,76.6529492 39.7917414,75.8219661 40.1486897,74.9752712 C40.5305,74.0587458 40.9087586,73.1544407 41.2799138,72.269339 C41.6475172,71.379 42.087931,70.5131017 42.5976034,69.6698983 C42.7893966,69.3539153 43.0042759,68.9681017 43.2493448,68.5176949 C43.4890862,68.0707797 43.7607931,67.6308475 44.0591379,67.2013898 C44.3557069,66.7719322 44.6753621,66.3773898 45.0127759,66.0212542 C45.3519655,65.6668644 45.6982586,65.4154746 46.0623103,65.265339 C46.4032759,65.132661 46.6838621,65.0837797 46.9200517,65.1082203 C47.1526897,65.1396441 47.419069,65.2478814 47.7138621,65.4329322 C47.9908966,65.640678 48.1933448,65.9880847 48.3176552,66.4856271 C48.4455172,66.979678 48.525431,67.5086441 48.5609483,68.0707797 C48.5875862,68.6294237 48.5982414,69.1653729 48.5875862,69.6698983 C48.576931,70.1744237 48.5716034,70.5497627 48.5716034,70.7959153 C48.616,71.7473559 48.6568448,72.6778475 48.6994655,73.5873898 C48.7403103,74.4951864 48.7953621,75.396 48.8592931,76.2950678 C50.173431,76.1274746 51.5053276,76.0157458 52.8656379,75.9581356 C53.2456724,76.0541525 53.5333621,76.2130169 53.7216034,76.4521864 C53.9151724,76.6843729 53.9986379,76.9270339 53.9791034,77.1819153 C53.9542414,77.4298136 53.8388103,77.6689831 53.6274828,77.8802203 C53.4161552,78.0949492 53.1107069,78.2328644 52.7058103,78.2904746 C51.4982241,78.3445932 50.3012931,78.456322 49.1114655,78.6239153 C49.2393276,79.8791186 49.4062586,81.1308305 49.6051552,82.3720678 C49.8058276,83.6185424 50.0793103,84.8667627 50.4202759,86.1219661 C50.4202759,86.4728644 50.3155,86.7591695 50.1148276,86.9773898 C49.9123793,87.1921186 49.6744138,87.3195593 49.3991552,87.3701864 C49.1256724,87.4138305 48.8379828,87.3841525 48.5431897,87.270678 C48.2448448,87.1589492 48.0015517,86.9442203 47.8115345,86.623 C47.470569,85.3555763 47.1970862,84.0968814 46.9822069,82.8626271 C46.7708793,81.6283729 46.6039483,80.3871356 46.4760862,79.1319322 C45.4567414,79.3920508 44.4498276,79.6835932 43.4588966,80.0152881 C42.4590862,80.3434915 41.4539483,80.7240678 40.4363793,81.1535254 C40.2019655,81.8640508 39.9995172,82.576322 39.8343621,83.2990678 C39.6603276,84.018322 39.5555517,84.7724915 39.5147069,85.5598305 L39.5147069,85.5598305 Z M42.5674138,75.984322 C42.3933793,76.3631525 42.2406552,76.7175424 42.1056897,77.0562203 C41.9671724,77.3931525 41.8108966,77.7405593 41.6439655,78.0914576 C42.4253448,77.8121356 43.1942931,77.5642373 43.9508103,77.3495085 C44.7002241,77.1312881 45.4656207,76.9427458 46.2541034,76.7734068 C46.1706379,75.8010169 46.1013793,74.8321186 46.0463276,73.8667119 C45.9930517,72.9030508 45.9451034,71.9271695 45.9042586,70.9355763 L45.8403276,69.3905763 C45.5419828,69.8409831 45.2791552,70.2704407 45.0429655,70.6824407 C44.8103276,71.0926949 44.6647069,71.3440847 44.599,71.4401017 C44.1976552,72.1872881 43.838931,72.9397119 43.5352586,73.7008644 C43.2262586,74.4532881 42.9030517,75.2179322 42.5674138,75.984322 L42.5674138,75.984322 Z" id="Fill-3" sketch:type="MSShapeGroup"></path>
                <path d="M21.7702931,85.3520847 C21.6211207,85.7274237 21.4097931,85.9962712 21.1309828,86.1638644 C20.8539483,86.3297119 20.5804655,86.3977966 20.3105345,86.3681186 C20.0317241,86.3366949 19.7795517,86.211 19.5433621,85.9927797 C19.3107241,85.7710678 19.1757586,85.4673051 19.1313621,85.0727627 C19.1935172,84.0497458 19.3320345,83.0459322 19.5433621,82.0752881 C19.7546897,81.0924237 20.0157414,80.1252712 20.3229655,79.1808136 C20.6319655,78.2328644 20.9622759,77.2901525 21.3263276,76.3666441 C21.6832759,75.4396441 22.0437759,74.5091525 22.4042759,73.571678 C22.7896379,72.5521525 23.1643448,71.5448475 23.5319483,70.5532542 C23.9066552,69.5651525 24.3435172,68.5997458 24.8531897,67.6657627 C25.0432069,67.3113729 25.2598621,66.8854068 25.5013793,66.3791356 C25.7482241,65.8815932 26.0146034,65.3910339 26.3165,64.9144407 C26.6112931,64.4326102 26.9309483,63.992678 27.2701379,63.6016271 C27.6075517,63.205339 27.9573966,62.9260169 28.3178966,62.7584237 C28.6588621,62.6117797 28.943,62.5541695 29.1756379,62.5855932 C29.4082759,62.6152712 29.6746552,62.7357288 29.9694483,62.9469661 C30.2464828,63.175661 30.4471552,63.5632203 30.5732414,64.1166271 C30.7011034,64.6682881 30.784569,65.2583559 30.8147586,65.8815932 C30.8431724,66.5065763 30.8538276,67.1001356 30.8431724,67.6657627 C30.8325172,68.2244068 30.8289655,68.6433898 30.8289655,68.9174746 C30.8715862,69.9771525 30.912431,71.0106441 30.9550517,72.0231864 C30.9994483,73.0322373 31.0509483,74.0377966 31.1131034,75.0398644 C32.432569,74.8530678 33.7644655,74.7273729 35.1194483,74.6627797 C35.5012586,74.7640339 35.7889483,74.9490847 35.9807414,75.2109492 C36.1707586,75.4710678 36.2542241,75.7434068 36.2329138,76.0227288 C36.2098276,76.3055424 36.0943966,76.5639153 35.883069,76.8065763 C35.6717414,77.0422542 35.3662931,77.1958814 34.9613966,77.2569831 C33.7538103,77.3215763 32.5568793,77.4437797 31.3670517,77.632322 C31.4949138,79.0271864 31.6618448,80.4185593 31.8625172,81.8046949 C32.0614138,83.1890847 32.3313448,84.5804576 32.6740862,85.975322 C32.6740862,86.3751017 32.5710862,86.6875932 32.3686379,86.9267627 C32.1679655,87.1729153 31.9317759,87.3160678 31.6547414,87.3666949 C31.3812586,87.417322 31.093569,87.3841525 30.7987759,87.2549661 C30.500431,87.1310169 30.2571379,86.8901017 30.0671207,86.5374576 C29.7261552,85.1233898 29.4526724,83.7250339 29.2377931,82.3511186 C29.0264655,80.9772034 28.8595345,79.5928136 28.7316724,78.1944576 C27.7105517,78.4877458 26.7054138,78.8159492 25.7091552,79.1808136 C24.7146724,79.545678 23.7095345,79.9681525 22.6919655,80.4412542 C22.4557759,81.2355763 22.2551034,82.0333898 22.0881724,82.8346949 C21.9194655,83.636 21.8111379,84.4757119 21.7702931,85.3520847 L21.7702931,85.3520847 Z M24.8212241,74.6959492 C24.6525172,75.1079492 24.4997931,75.5077288 24.3612759,75.8830678 C24.2227586,76.2618983 24.0664828,76.6424746 23.8995517,77.0387627 C24.6827069,76.7280169 25.453431,76.4486949 26.2028448,76.2095254 C26.9558103,75.9686102 27.7247586,75.7608644 28.5096897,75.5688305 C28.4226724,74.4847119 28.3534138,73.4110678 28.3019138,72.3374237 C28.2486379,71.2620339 28.2006897,70.1744237 28.158069,69.0711017 L28.0959138,67.3515254 C27.797569,67.8525593 27.5347414,68.3274068 27.3021034,68.7900339 C27.0659138,69.2439322 26.9202931,69.5267458 26.8545862,69.6332373 C26.4514655,70.4677119 26.098069,71.3039322 25.7908448,72.1453898 C25.4818448,72.9920847 25.1586379,73.8405254 24.8212241,74.6959492 L24.8212241,74.6959492 Z" id="Fill-4" sketch:type="MSShapeGroup"></path>
                <path d="M56.8293621,87.4958814 C56.7157069,87.7996441 56.534569,88.0213559 56.2912759,88.1540339 C56.0497586,88.2867119 55.8064655,88.3390847 55.5631724,88.3146441 C55.3198793,88.2867119 55.0943448,88.1819661 54.8936724,88.0038983 C54.6894483,87.829322 54.5651379,87.5779322 54.5296207,87.2602034 C54.5846724,86.0294407 54.6894483,84.8161356 54.835069,83.606322 C54.9806897,82.3947627 55.1511724,81.1884407 55.3447414,79.9873559 C55.5383103,78.7880169 55.7372069,77.5869322 55.941431,76.3841017 C56.1421034,75.1865085 56.3232414,73.983678 56.483069,72.7721186 C56.5967241,71.9725593 56.6837414,71.1712542 56.7423448,70.3699492 C56.7601034,70.1028475 56.7565517,69.8095593 56.7281379,69.4900847 C56.6979483,69.1688644 56.6943966,68.8493898 56.7157069,68.531661 C56.7316897,68.2104407 56.8009483,67.9101695 56.919931,67.634339 C57.0335862,67.3585085 57.2449138,67.1402881 57.5574655,66.979678 C57.9286207,66.8574746 58.2447241,66.8260508 58.504,66.8888983 C58.7686034,66.9534915 59.0047931,67.1298136 59.2196724,67.4370678 C59.8394483,68.6102203 60.3775345,69.834 60.8215,71.106661 C61.2654655,72.3775763 61.7129828,73.6362712 62.1605,74.881 C62.3753793,75.4832881 62.5831552,76.0908136 62.7838276,76.6948475 C62.9933793,77.2971356 63.1727414,77.9116441 63.3254655,78.5348814 C63.4817414,79.177322 63.6025,79.8180169 63.6895172,80.4691864 C63.7800862,81.1238475 63.8901897,81.7750169 64.026931,82.429678 C64.2382586,80.509339 64.4566897,78.6064576 64.6822241,76.7210339 C64.9042069,74.8356102 65.2132069,72.9501864 65.5967931,71.0647627 C65.6571724,70.8535254 65.7051207,70.5707119 65.7477414,70.2233051 C65.7850345,69.8776441 65.8400862,69.5197627 65.92,69.1583898 C65.9963621,68.7900339 66.0833793,68.4426271 66.1846034,68.1056949 C66.2769483,67.7635254 66.4154655,67.4876949 66.5895,67.2764576 C66.8398966,67.0966441 67.092069,66.9936441 67.3460172,66.9657119 C67.5981897,66.9430169 67.8237241,66.9726949 68.0155172,67.0582373 C68.2090862,67.1507627 68.3618103,67.2904237 68.4701379,67.4876949 C68.5731379,67.6832203 68.6086552,67.906678 68.5695862,68.156322 L68.598,68.1842542 C68.6388448,68.3780339 68.6086552,68.5787966 68.5109828,68.7795593 C68.4168621,68.9890508 68.3440517,69.1967966 68.3103103,69.4080339 C68.1717931,70.0347627 68.0457069,70.6457797 67.9285,71.2533051 C67.813069,71.8555932 67.6816552,72.4666102 67.5502414,73.0898475 C67.2376897,74.7640339 67.0050517,76.4312373 66.8523276,78.0914576 C66.6942759,79.758661 66.5095862,81.4276102 66.2982586,83.0983051 C66.2609655,83.4736441 66.229,83.8856441 66.2112414,84.3412881 C66.189931,84.7916949 66.1242241,85.2281356 66.0212241,85.6453729 C65.9128966,86.0608644 65.7495172,86.4431864 65.5239828,86.7975763 C65.302,87.138 64.9663621,87.4033559 64.5223966,87.5779322 C64.1334828,87.6320508 63.820931,87.6058644 63.5865172,87.4958814 C63.357431,87.3946271 63.151431,87.1886271 62.9756207,86.8848644 C62.7056897,86.2441695 62.4766034,85.5964915 62.2919138,84.938339 C62.109,84.283678 61.9491724,83.6185424 61.8266379,82.951661 C61.6987759,82.2830339 61.5780172,81.6178983 61.4625862,80.9597458 C61.3453793,80.3050847 61.2068621,79.6364576 61.0541379,78.9573559 C60.9191724,78.3952203 60.7557931,77.8365763 60.5746552,77.2901525 C60.3881897,76.7524576 60.1963966,76.2025424 60.0063793,75.6508814 L58.7828103,72.2099831 C58.6265345,73.4931186 58.4489483,74.7640339 58.2447241,76.0262203 C58.0405,77.2884068 57.8451552,78.5558305 57.6622414,79.8284915 C57.474,81.0994068 57.3052931,82.3773051 57.152569,83.6604407 C56.9927414,84.938339 56.8879655,86.2214746 56.8293621,87.4958814" id="Fill-5" sketch:type="MSShapeGroup"></path>
                <path d="M73.7764138,86.108 C73.8527759,83.7145593 73.9877414,81.3525424 74.1813103,79.0236949 C74.3766552,76.6948475 74.5222759,74.3380678 74.6128448,71.9620847 C74.3695517,71.9620847 74.1582241,71.8974915 73.9699828,71.7700508 C73.787069,71.6408644 73.657431,71.4767627 73.5863966,71.276 C73.5100345,71.0752373 73.4993793,70.8535254 73.554431,70.6143559 C73.605931,70.3821695 73.7551034,70.1622034 73.9983966,69.9596949 C74.4068448,69.6332373 74.7051897,69.3905763 74.893431,69.2299661 C75.0763448,69.076339 75.2397241,68.943661 75.3817931,68.8354237 C75.5167586,68.7254407 75.6943448,68.6206949 75.8950172,68.5211864 C76.0992414,68.4181864 76.426,68.259322 76.8735172,68.0411017 C77.598069,67.6919492 78.3474828,67.5261017 79.1182069,67.5453051 C79.8871552,67.5662542 80.5673103,67.7513051 81.1568966,68.1091864 C81.7393793,68.4670678 82.1673621,68.9681017 82.4372931,69.6157797 C82.7072241,70.2669492 82.7107759,71.0368305 82.4515,71.9341525 C82.3396207,72.2990169 82.2188621,72.6534068 82.091,72.9920847 C81.9578103,73.3290169 81.8192931,73.6694407 81.6701207,74.0168475 C82.1904483,73.983678 82.669931,74.027322 83.1067931,74.1565085 C83.5436552,74.2839492 83.9148103,74.505661 84.2238103,74.8164068 C84.5292586,75.1254068 84.7441379,75.535661 84.8648966,76.050661 C84.9856552,76.5551864 84.9892069,77.1819153 84.8791034,77.9151356 C84.7476897,78.6989831 84.5221552,79.4566441 84.1918448,80.1898644 C83.8686379,80.9195932 83.4815,81.6248814 83.0375345,82.3162034 C82.5900172,82.9953051 82.0963276,83.6499661 81.5600172,84.2732034 C81.0183793,84.8946949 80.4767414,85.4812712 79.940431,86.0259492 C79.6793793,86.2860678 79.3703793,86.5793559 79.0205345,86.902322 C78.6671379,87.2375085 78.2853276,87.5307966 77.8786552,87.7961525 C77.4666552,88.0615085 77.0368966,88.2570339 76.5787241,88.3862203 C76.1241034,88.5154068 75.6730345,88.5154068 75.2255172,88.3862203 C75.0248448,88.3146441 74.8206207,88.1784746 74.6252759,87.9742203 C74.4317069,87.7717119 74.2576724,87.6023729 74.1085,87.4522373 C73.8705345,87.2375085 73.7320172,87.005322 73.6929483,86.7661525 C73.657431,86.5304746 73.6822931,86.3122542 73.7764138,86.108 L73.7764138,86.108 Z M76.3709483,78.8421356 C76.2768276,80.0694068 76.1969138,81.2931864 76.1347586,82.5187119 C76.0655,83.7424915 76.0175517,84.9662712 75.9784828,86.1900508 C76.2945862,86.1568814 76.6408793,85.9997627 77.0262414,85.7274237 C77.4116034,85.4498475 77.8058448,85.1094237 78.2267241,84.6974237 C78.6422759,84.283678 79.0560517,83.8315254 79.4502931,83.327 C79.8498621,82.8242203 80.2316724,82.326678 80.5815172,81.8326271 C80.9349138,81.3420678 81.2403621,80.8672203 81.5031897,80.4185593 C81.7642414,79.9716441 81.9578103,79.6032881 82.091,79.31 C82.3502759,78.6727966 82.5349655,78.0914576 82.645069,77.5816949 C82.7587241,77.0719322 82.7427414,76.6843729 82.6042241,76.4312373 C82.4674828,76.1798475 82.1762414,76.0663729 81.7393793,76.1012881 C81.3025172,76.1379492 80.6578793,76.3771186 79.8001379,76.8170508 C79.0027759,77.6899322 78.074,78.3690339 77.0120345,78.8421356 C76.7865,78.8962542 76.5751724,78.8962542 76.3709483,78.8421356 L76.3709483,78.8421356 Z M76.8451034,70.5096102 C76.8078103,71.4977119 76.7651897,72.4735932 76.7207931,73.4407458 C76.6763966,74.4131356 76.6142414,75.3907627 76.541431,76.3771186 C76.8362241,76.1204915 77.1398966,75.8830678 77.4595517,75.6788136 C77.7756552,75.4658305 78.0882069,75.2615763 78.4060862,75.0608136 C78.8713621,74.5283559 79.2567241,73.9592373 79.5657241,73.3464746 C79.8711724,72.7319661 80.0984828,72.1157119 80.2476552,71.4977119 C80.3932759,70.8535254 80.3630862,70.4101017 80.1517586,70.1534746 C79.940431,69.8951017 79.6420862,69.7589322 79.270931,69.7379831 C78.8997759,69.7222712 78.486,69.7921017 78.0278276,69.9596949 C77.5749828,70.1237966 77.1789655,70.3071017 76.8451034,70.5096102 L76.8451034,70.5096102 Z" id="Fill-6" sketch:type="MSShapeGroup"></path>
                <path d="M95.2767759,72.1628475 C95.6798966,72.1523729 95.9711379,72.2448983 96.1540517,72.4421695 C96.3387414,72.6359492 96.3902414,72.857661 96.317431,73.1038136 C96.3458448,73.1038136 96.3760345,73.1038136 96.408,73.1142881 C96.4399655,73.1212712 96.4701552,73.1247627 96.5021207,73.1247627 C96.6086724,73.1474576 96.7063448,73.1753898 96.7898103,73.196339 C96.8732759,73.2260169 96.9531897,73.2679153 97.0331034,73.336 C97.6457759,73.8719492 98.1003966,74.3921864 98.4022931,74.8967119 C98.7006379,75.4047288 98.9119655,75.9267119 99.0238448,76.4661525 C99.1375,77.0003559 99.1996552,77.5642373 99.1996552,78.1612881 C99.1996552,78.7565932 99.2103103,79.4182373 99.2458276,80.1479661 C99.2724655,80.788661 99.1854483,81.4206271 98.9776724,82.0403729 C98.7698966,82.6583729 98.4822069,83.2554237 98.1146034,83.8245424 C97.747,84.393661 97.3065862,84.9313559 96.8004655,85.4271525 C96.2943448,85.9281864 95.7527069,86.3751017 95.1879828,86.7731356 C94.9855345,86.9127966 94.7919655,87.0524576 94.6019483,87.1921186 C94.4066034,87.3352712 94.1881724,87.4487458 93.9413276,87.5395254 C93.5257759,87.6809322 93.1102241,87.8136102 92.6857931,87.9358136 C92.2631379,88.0562712 91.8404828,88.1784746 91.4107241,88.307661 C91.2260345,88.3355932 91.0733103,88.3390847 90.9632069,88.3286102 C90.8442241,88.3146441 90.7021552,88.2762373 90.5316724,88.2116441 C90.2723966,88.0038983 90.0060172,87.8136102 89.7272069,87.6250678 C89.4501724,87.4382712 89.2033276,87.2270339 88.9884483,86.9843729 C88.8357241,86.8185254 88.7327241,86.6299831 88.6776724,86.4187458 C88.6243966,86.2075085 88.5906552,85.9892881 88.5764483,85.7745593 C88.5586897,85.556339 88.5551379,85.3346271 88.5622414,85.1129153 C88.5693448,84.8912034 88.5586897,84.666 88.5302759,84.4512712 C88.464569,84.0148305 88.4823276,83.4928475 88.5764483,82.8835763 C88.6670172,82.2760508 88.7948793,81.6528136 88.9547069,81.0208475 C89.1145345,80.3871356 89.2974483,79.7796102 89.494569,79.1895424 C89.6934655,78.6029661 89.879931,78.1054237 90.0504138,77.7108814 C90.1267759,77.5467797 90.228,77.3180847 90.3487586,77.0317797 C90.4695172,76.7419831 90.6222414,76.4277458 90.7998276,76.0908136 C90.9720862,75.7503898 91.1638793,75.4012373 91.361,75.0433559 C91.5598966,74.6819831 91.7783276,74.3450508 92.0109655,74.0238305 C92.2382759,73.7078475 92.4709138,73.4215424 92.7106552,73.1684068 C92.9503966,72.9205085 93.1901379,72.7389492 93.4352069,72.6272203 C93.7122414,72.482322 94.0141379,72.3915424 94.3373448,72.3444068 C94.6605517,72.2990169 94.9713276,72.2379153 95.2767759,72.1628475 L95.2767759,72.1628475 Z M93.0924655,76.0017797 C93.0747069,76.2479322 92.9983448,76.4382203 92.8598276,76.5778814 C92.7248621,76.7175424 92.5614828,76.8065763 92.378569,76.8275254 C92.172569,77.2360339 91.9932069,77.6532712 91.8227241,78.0652712 C91.6522414,78.4807627 91.4995172,78.8840339 91.361,79.2750847 C91.2260345,79.6678814 91.1052759,80.0397288 91.0076034,80.3976102 C90.9028276,80.7589831 90.8246897,81.0732203 90.7643103,81.3385763 C90.6843966,81.6755085 90.6080345,82.0438644 90.5316724,82.4541186 C90.4553103,82.8626271 90.3967069,83.2816102 90.3594138,83.7110678 C90.3203448,84.1370339 90.3167931,84.5647458 90.3487586,84.9872203 C90.3771724,85.4096949 90.4624138,85.799 90.6027069,86.1568814 C90.6613103,86.2860678 90.7643103,86.3838305 90.9028276,86.4554068 C91.039569,86.5252373 91.1709828,86.6125254 91.2952931,86.7155254 C91.6007414,86.6125254 91.9132931,86.5252373 92.2258448,86.4431864 C92.5401724,86.3681186 92.8456207,86.2721017 93.1368621,86.1568814 C93.2132241,86.1184746 93.3322069,86.0503898 93.4938103,85.9473898 C93.6536379,85.8461356 93.820569,85.7274237 93.9910517,85.5999831 C94.1562069,85.4742881 94.3195862,85.3555763 94.4758621,85.2455932 C94.6250345,85.1373559 94.7298103,85.0657797 94.7742069,85.0273729 C95.5129655,84.4006441 96.1061034,83.6866271 96.5607241,82.8957966 C97.0117931,82.0979831 97.3101379,81.2704915 97.4557586,80.4115763 C97.6013793,79.545678 97.6084828,78.6745424 97.4699655,77.7999153 C97.3314483,76.9235424 97.0473103,76.080339 96.6193276,75.2755424 C96.4151034,74.8932203 96.1238621,74.645322 95.7385,74.542322 C95.3566897,74.4445593 94.9677759,74.4445593 94.5770862,74.542322 C94.1846207,74.645322 93.8418793,74.8286271 93.5506379,75.0922373 C93.2629483,75.3506102 93.1066724,75.6578644 93.0924655,76.0017797 L93.0924655,76.0017797 Z" id="Fill-7" sketch:type="MSShapeGroup"></path>
                <path d="M108.95269,71.8451186 C109.352259,71.8346441 109.6435,71.930661 109.831741,72.1314237 C110.014655,72.3339322 110.066155,72.5573898 109.991569,72.8035424 C110.021759,72.8035424 110.053724,72.8105254 110.083914,72.8140169 C110.112328,72.821 110.142517,72.8244915 110.174483,72.8244915 C110.28281,72.8524237 110.378707,72.8786102 110.462172,72.9030508 C110.54919,72.9292373 110.625552,72.9746271 110.705466,73.0427119 C111.319914,73.5873898 111.77631,74.1198475 112.074655,74.638339 C112.376552,75.1498475 112.584328,75.6840508 112.699759,76.2304746 C112.816966,76.7803898 112.873793,77.3599831 112.873793,77.9622712 C112.873793,78.5732881 112.882672,79.2454068 112.914638,79.9873559 C112.946603,80.6420169 112.859586,81.2827119 112.65181,81.9181695 C112.44581,82.5483898 112.154569,83.1559153 111.790517,83.739 C111.419362,84.3185932 110.9825,84.8597797 110.476379,85.3712881 C109.970259,85.8793051 109.428621,86.3366949 108.860345,86.7399661 C108.661448,86.8848644 108.464328,87.0297627 108.27431,87.1729153 C108.082517,87.3160678 107.864086,87.4347797 107.619017,87.5238136 C107.20169,87.6669661 106.786138,87.7996441 106.363483,87.9218475 C105.939052,88.0492881 105.512845,88.1784746 105.083086,88.307661 C104.898397,88.3355932 104.749224,88.3390847 104.635569,88.3286102 C104.516586,88.3146441 104.378069,88.2744915 104.20581,88.2081525 C103.94831,88.0004068 103.678379,87.7996441 103.401345,87.6128475 C103.122534,87.4243051 102.881017,87.2060847 102.666138,86.9546949 C102.509862,86.7905932 102.408638,86.5950678 102.353586,86.3785932 C102.296759,86.1638644 102.263017,85.9456441 102.24881,85.7274237 C102.234603,85.5022203 102.231052,85.2770169 102.238155,85.048322 C102.245259,84.8231186 102.234603,84.5944237 102.200862,84.3727119 C102.142259,83.9257966 102.15469,83.400322 102.24881,82.7770847 C102.342931,82.1608305 102.467241,81.5253729 102.627069,80.8776949 C102.790448,80.2300169 102.96981,79.6102712 103.172259,79.0132203 C103.369379,78.4091864 103.554069,77.9116441 103.722776,77.5031356 C103.799138,77.3355424 103.900362,77.0998644 104.021121,76.8065763 C104.143655,76.5167797 104.294603,76.1938136 104.47219,75.8516441 C104.646224,75.5042373 104.836241,75.1498475 105.03869,74.7814915 C105.23581,74.4166271 105.454241,74.0692203 105.683328,73.7445085 C105.915966,73.4215424 106.146828,73.1317458 106.383017,72.8716271 C106.622759,72.6202373 106.8625,72.4316949 107.111121,72.3164746 C107.386379,72.173322 107.684724,72.0773051 108.009707,72.033661 C108.332914,71.9847797 108.645466,71.9271695 108.95269,71.8451186 L108.95269,71.8451186 Z M106.764828,75.7608644 C106.750621,76.0122542 106.674259,76.2025424 106.535741,76.3491864 C106.393672,76.4905932 106.237397,76.5778814 106.050931,76.602322 C105.848483,77.0213051 105.669121,77.4402881 105.495086,77.8645085 C105.326379,78.2904746 105.177207,78.6989831 105.03869,79.1022542 C104.898397,79.4967966 104.777638,79.8791186 104.676414,80.2439831 C104.580517,80.6088475 104.497052,80.928322 104.438448,81.2024068 C104.362086,81.5428305 104.282172,81.9181695 104.20581,82.3371525 C104.129448,82.7561356 104.072621,83.1821017 104.031776,83.6185424 C103.998034,84.0584746 103.990931,84.489678 104.021121,84.9208814 C104.056638,85.3520847 104.140103,85.7501186 104.278621,86.1149831 C104.337224,86.247661 104.438448,86.3471695 104.576966,86.4187458 C104.711931,86.490322 104.843345,86.5793559 104.967655,86.6841017 C105.273103,86.5793559 105.585655,86.490322 105.901759,86.4082712 C106.217862,86.3297119 106.517983,86.2302034 106.809224,86.1149831 C106.885586,86.0748305 107.008121,86.0032542 107.1715,85.8967627 C107.329552,85.7955085 107.492931,85.6785424 107.663414,85.5458644 C107.833897,85.416678 107.993724,85.2962203 108.148224,85.1844915 C108.300948,85.0745085 108.402172,85.0011864 108.446569,84.9592881 C109.181776,84.3220847 109.778466,83.5958475 110.233086,82.7875593 C110.684155,81.9792712 110.986052,81.134322 111.131672,80.2544576 C111.277293,79.3745932 111.284397,78.4877458 111.142328,77.5904237 C111.00381,76.698339 110.719672,75.837678 110.288138,75.0171695 C110.087466,74.6208814 109.799776,74.3799661 109.414414,74.2734746 C109.029052,74.1704746 108.645466,74.1704746 108.249448,74.2734746 C107.860534,74.3799661 107.517793,74.5632712 107.226552,74.8321186 C106.93531,75.0992203 106.782586,75.4082203 106.764828,75.7608644 L106.764828,75.7608644 Z" id="Fill-8" sketch:type="MSShapeGroup"></path>
                <path d="M119.671793,87.6215763 C119.577672,87.8782034 119.435603,88.065 119.242034,88.1784746 C119.050241,88.2902034 118.856672,88.3390847 118.664879,88.3146441 C118.474862,88.2902034 118.297276,88.204661 118.137448,88.0562712 C117.975845,87.9026441 117.878172,87.6914068 117.846207,87.4208136 C117.895931,86.3785932 117.975845,85.3451017 118.093052,84.3185932 C118.206707,83.2920847 118.339897,82.2655763 118.496172,81.2460508 C118.648897,80.2300169 118.803397,79.207 118.966776,78.1909661 C119.126603,77.1714407 119.268672,76.1484237 119.389431,75.1219153 C119.483552,74.4410678 119.55281,73.7584746 119.598983,73.0793729 C119.611414,72.8524237 119.611414,72.6062712 119.588328,72.3339322 C119.563466,72.0598475 119.559914,71.791 119.577672,71.518661 C119.591879,71.246322 119.646931,70.9931864 119.741052,70.761 C119.829845,70.5235763 119.996776,70.3420169 120.243621,70.2058475 C120.538414,70.0993559 120.78881,70.069678 120.993034,70.1237966 C121.20081,70.1779153 121.390828,70.3315424 121.557759,70.5881695 C122.049672,71.5867458 122.474103,72.6272203 122.823948,73.7078475 C123.177345,74.7849831 123.534293,75.8551356 123.885914,76.9095763 C124.054621,77.4245763 124.218,77.9360847 124.377828,78.449339 C124.541207,78.9625932 124.686828,79.4828305 124.807586,80.0117966 C124.930121,80.5582203 125.026017,81.1063898 125.095276,81.6528136 C125.164534,82.2079661 125.251552,82.7631186 125.359879,83.3217627 C125.530362,81.6894746 125.702621,80.0728983 125.880207,78.4737797 C126.056017,76.867678 126.29931,75.2685593 126.604759,73.6694407 C126.649155,73.4896271 126.688224,73.2539492 126.718414,72.953678 C126.750379,72.6603898 126.794776,72.3601186 126.858707,72.0511186 C126.920862,71.7438644 126.990121,71.4435932 127.062931,71.1572881 C127.142845,70.8709831 127.249397,70.6353051 127.387914,70.4537458 C127.58681,70.3053559 127.787483,70.216322 127.988155,70.1918814 C128.187052,70.1709322 128.362862,70.1953729 128.515586,70.2739322 C128.66831,70.349 128.789069,70.4677119 128.876086,70.6353051 C128.959552,70.8028983 128.987966,70.9862034 128.956,71.2009322 L128.97731,71.2218814 C129.0075,71.3929661 128.987966,71.5623051 128.908052,71.7333898 C128.83169,71.9097119 128.78019,72.0842881 128.748224,72.2658475 C128.638121,72.7930678 128.540448,73.3150508 128.446328,73.8265593 C128.355759,74.3450508 128.25631,74.8670339 128.147983,75.3907627 C127.901138,76.8100678 127.718224,78.2293729 127.597466,79.6364576 C127.471379,81.0487797 127.325759,82.466339 127.155276,83.8856441 C127.128638,84.2016271 127.103776,84.5560169 127.086017,84.938339 C127.073586,85.3241525 127.02031,85.696 126.936845,86.0503898 C126.855155,86.4082712 126.721966,86.7294915 126.546155,87.0262712 C126.372121,87.3160678 126.105741,87.5395254 125.750569,87.6914068 C125.446897,87.7385424 125.200052,87.7141017 125.017138,87.6215763 C124.832448,87.5377797 124.669069,87.3597119 124.530552,87.1048305 C124.315672,86.5618983 124.134534,86.0102373 123.988914,85.4498475 C123.843293,84.8912034 123.718983,84.3290678 123.62131,83.7651864 C123.521862,83.1960678 123.427741,82.6374237 123.330069,82.0752881 C123.2395,81.5148983 123.132948,80.9492712 123.01219,80.3731695 C122.903862,79.8930847 122.776,79.4182373 122.630379,78.9573559 C122.484759,78.5017119 122.335586,78.0338475 122.182862,77.5642373 L121.211466,74.6418305 C121.088931,75.7329322 120.946862,76.8100678 120.78881,77.8802203 C120.625431,78.9573559 120.469155,80.0327458 120.327086,81.1098814 C120.177914,82.194 120.0465,83.2711356 119.920414,84.3622373 C119.796103,85.4498475 119.71619,86.5339661 119.671793,87.6215763" id="Fill-9" sketch:type="MSShapeGroup"></path>
                <path d="M132.252,88.5730169 C132.220034,88.6323729 132.220034,88.6218983 132.252,88.5258814 L132.252,88.5730169 L132.252,88.5730169 Z M132.296397,88.2797288 C132.28219,88.3111525 132.275086,88.3547966 132.275086,88.4176441 C132.259103,88.447322 132.252,88.4822373 132.252,88.5258814 C132.252,88.4543051 132.264431,88.3687627 132.296397,88.2797288 L132.296397,88.2797288 Z M132.321259,88.1226102 C132.473983,87.2602034 132.635586,86.4082712 132.813172,85.563322 C132.990759,84.7201186 133.180776,83.8646949 133.381448,83.0022881 C133.118621,82.9411864 132.930379,82.8189831 132.813172,82.6304407 C132.699517,82.4401525 132.653345,82.2481186 132.678207,82.0508475 C132.699517,81.8535763 132.795414,81.6755085 132.962345,81.5183898 C133.132828,81.3577797 133.370793,81.2704915 133.676241,81.2565254 L133.770362,81.2565254 C133.940845,80.4761695 134.111328,79.6905763 134.276483,78.9137119 C134.446966,78.140339 134.606793,77.3495085 134.763069,76.5447119 C134.624552,76.6843729 134.471828,76.7734068 134.301345,76.8205424 C134.134414,76.8641864 133.967483,76.8606949 133.805879,76.8065763 C133.646052,76.7559492 133.507534,76.6529492 133.392103,76.5028136 C133.278448,76.3491864 133.205638,76.1623898 133.170121,75.9336949 C133.246483,75.0276441 133.482672,74.2769661 133.860931,73.6834068 C134.246293,73.0863559 134.738207,72.5521525 135.338448,72.0842881 C135.352655,71.9166949 135.366862,71.7438644 135.37219,71.5623051 C135.379293,71.3824915 135.389948,71.2009322 135.407707,71.0211186 C135.469862,70.731322 135.585293,70.518339 135.761103,70.385661 C135.93869,70.246 136.125155,70.1779153 136.3205,70.1709322 C136.510517,70.1622034 136.695207,70.2233051 136.867466,70.3524915 C137.048603,70.4781864 137.158707,70.6667288 137.204879,70.9076441 C137.281241,70.8779661 137.354052,70.8430508 137.412655,70.8063898 C137.47481,70.7679831 137.544069,70.7278305 137.616879,70.6824407 C137.805121,70.5776949 138.023552,70.5061186 138.275724,70.4642203 C138.529672,70.4275593 138.785397,70.4170847 139.046448,70.4450169 C139.305724,70.4642203 139.559672,70.518339 139.795862,70.6108644 C140.033828,70.7033898 140.232724,70.8133729 140.385448,70.9530339 C140.614534,71.1642712 140.859603,71.3720169 141.124207,71.5762712 C141.383483,71.7770339 141.575276,72.033661 141.696034,72.3339322 C141.820345,72.681339 141.962414,73.0252542 142.122241,73.365678 C142.285621,73.7078475 142.365534,74.0552542 142.365534,74.4166271 C142.379741,75.0817627 142.358431,75.7399153 142.299828,76.3875932 C142.234121,77.0387627 142.111586,77.6689831 141.928672,78.2904746 C141.743983,78.9102203 141.484707,79.5002881 141.143741,80.0589322 C140.808103,80.619322 140.360586,81.1238475 139.808293,81.5742542 C139.406948,81.9076949 138.984293,82.1870169 138.529672,82.4122203 C138.075052,82.6409153 137.627534,82.8835763 137.180017,83.1349661 C136.874569,83.3060508 136.546034,83.3950847 136.201517,83.400322 C135.855224,83.4073051 135.508931,83.3741356 135.153759,83.2955763 C135.077397,83.6167966 135.008138,83.9257966 134.945983,84.2365424 C134.883828,84.5437966 134.814569,84.8562881 134.738207,85.1775085 C134.617448,85.7850339 134.502017,86.3820847 134.406121,86.9773898 C134.304897,87.5744407 134.193017,88.1749831 134.068707,88.7825085 C133.962155,89.0670678 133.805879,89.2625932 133.599879,89.367339 C133.392103,89.4738305 133.184328,89.4982712 132.976552,89.4458983 C132.768776,89.3952712 132.59119,89.2800508 132.445569,89.0984915 C132.299948,88.9151864 132.241345,88.6864915 132.275086,88.4176441 C132.275086,88.3547966 132.28219,88.3111525 132.296397,88.2797288 C132.296397,88.2675085 132.299948,88.2500508 132.307052,88.2325932 C132.317707,88.2221186 132.321259,88.1994237 132.321259,88.1645085 C132.321259,88.1819661 132.317707,88.1994237 132.307052,88.2116441 C132.299948,88.2291017 132.296397,88.2395763 132.296397,88.2570339 C132.296397,88.2116441 132.3035,88.1819661 132.321259,88.1645085 L132.321259,88.1226102 L132.321259,88.1226102 Z M137.11431,72.9432034 C136.99,74.4271017 136.780448,75.8760847 136.489207,77.2901525 C136.194414,78.7164407 135.883638,80.1479661 135.542672,81.6004407 C135.716707,81.6144068 135.880086,81.6144068 136.04169,81.6004407 C136.201517,81.5829831 136.343586,81.5358475 136.466121,81.4642712 C136.819517,81.2530339 137.183569,81.0557627 137.561828,80.8707119 C137.940086,80.6943898 138.279276,80.4656949 138.588276,80.1933559 C139.046448,79.7865932 139.438914,79.2960339 139.763897,78.7199322 C140.087103,78.147322 140.31619,77.5397966 140.454707,76.8991017 C140.589672,76.2584068 140.630517,75.6107288 140.568362,74.9595593 C140.506207,74.3136271 140.328621,73.7148305 140.040931,73.1684068 C139.868672,72.8716271 139.673328,72.6534068 139.451345,72.5277119 C139.229362,72.3985254 138.987845,72.3339322 138.726793,72.3339322 C138.463966,72.3339322 138.19581,72.3915424 137.918776,72.5067627 C137.641741,72.6167458 137.373586,72.7668814 137.11431,72.9432034 L137.11431,72.9432034 Z" id="Fill-10" sketch:type="MSShapeGroup"></path>
                <path d="M148.428328,70.9530339 C148.472724,70.6964068 148.5775,70.4991356 148.747983,70.3629661 C148.91669,70.2267966 149.094276,70.1534746 149.278966,70.1377627 C149.461879,70.1237966 149.639466,70.1744237 149.808172,70.2948814 C149.975103,70.4170847 150.099414,70.6038814 150.175776,70.8605085 L150.175776,71.0211186 C150.394207,70.9600169 150.60731,70.9076441 150.82219,70.8605085 C151.040621,70.8133729 151.230638,70.7714746 151.397569,70.7278305 C152.242879,70.5427797 153.07931,70.3891525 153.91219,70.2599661 C154.741517,70.1342712 155.590379,70.0522203 156.467655,70.0242881 C156.773103,70.0120678 157.012845,70.0836441 157.179776,70.2390169 C157.348483,70.3996271 157.446155,70.5776949 157.471017,70.7714746 C157.495879,70.9652542 157.439052,71.1572881 157.307638,71.3510678 C157.179776,71.5361186 156.961345,71.6618136 156.652345,71.7229153 C156.055655,71.7560847 155.466069,71.8049661 154.89069,71.8800339 C154.311759,71.9585932 153.734603,72.0476271 153.148569,72.1523729 C152.704603,72.2448983 152.209138,72.3671017 151.663948,72.5277119 C151.120534,72.6848305 150.593103,72.8105254 150.086983,72.8995593 C150.023052,73.5804068 149.964448,74.2525254 149.912948,74.9141695 C149.861448,75.5793051 149.777983,76.2514237 149.669655,76.9322712 C150.498983,76.5097966 151.324759,76.1379492 152.146983,75.8219661 C152.969207,75.5042373 153.853586,75.3069661 154.807224,75.2318983 C155.116224,75.2179322 155.350638,75.2860169 155.524672,75.4466271 C155.691603,75.6072373 155.789276,75.7905424 155.80881,75.9913051 C155.833672,76.1973051 155.782172,76.3945763 155.650759,76.5778814 C155.517569,76.7699153 155.299138,76.8956102 154.99369,76.9567119 C153.96369,77.0317797 152.992293,77.2884068 152.077724,77.7265932 C151.164931,78.1612881 150.259241,78.6134407 149.37131,79.0813051 C149.188397,80.200339 148.996603,81.3141356 148.806586,82.4226949 C148.613017,83.5382373 148.501138,84.6555254 148.472724,85.7885254 C149.209707,85.5318983 149.93781,85.2770169 150.648155,85.0203898 C151.362052,84.7655085 152.104362,84.5804576 152.871534,84.4722203 C153.304845,84.4006441 153.723948,84.3552542 154.137724,84.3360508 C154.556828,84.3220847 154.977707,84.3011356 155.407466,84.2714576 C155.716466,84.2574915 155.950879,84.3290678 156.121362,84.4861864 C156.291845,84.6485424 156.387741,84.8266102 156.409052,85.0308644 C156.433914,85.2351186 156.378862,85.4271525 156.249224,85.6209322 C156.11781,85.8077288 155.899379,85.9351695 155.590379,85.9927797 C155.070052,86.0399153 154.643845,86.0678475 154.311759,86.0853051 C153.981448,86.0975254 153.679552,86.1254576 153.402517,86.1638644 C153.127259,86.2005254 152.836017,86.247661 152.541224,86.3105085 C152.239328,86.3681186 151.862845,86.4693729 151.397569,86.6055424 C150.800879,86.7731356 150.2255,86.9669153 149.683862,87.1921186 C149.135121,87.4208136 148.549086,87.5569831 147.918655,87.6023729 C147.751724,87.5744407 147.616759,87.5377797 147.515534,87.4854068 C147.416086,87.4417627 147.304207,87.3597119 147.179897,87.2375085 C147.107086,87.1048305 147.023621,86.9773898 146.940155,86.8621695 C146.853138,86.7486949 146.790983,86.6195085 146.743034,86.4693729 C146.652466,86.1498983 146.615172,85.7675763 146.627603,85.313678 C146.64181,84.8562881 146.687983,84.393661 146.757241,83.9100847 C146.8265,83.4247627 146.906414,82.9551525 146.998759,82.4942712 C147.089328,82.0333898 147.158586,81.6353559 147.20831,81.303661 C147.419638,79.8826102 147.634517,78.4737797 147.849397,77.0649492 C148.064276,75.6648475 148.220552,74.2455424 148.314672,72.8105254 C148.188586,72.718 148.096241,72.6097627 148.035862,72.4805763 C147.973707,72.3496441 147.950621,72.2204576 147.952397,72.0842881 C147.9595,71.9516102 148.005672,71.8224237 148.082034,71.6984746 C148.158397,71.5797627 148.264948,71.4802542 148.403466,71.4051864 C148.403466,71.3301186 148.407017,71.2533051 148.414121,71.1782373 C148.421224,71.1014237 148.428328,71.0281017 148.428328,70.9530339" id="Fill-11" sketch:type="MSShapeGroup"></path>
                <path d="M158.897034,69.9562034 C158.534759,69.9160508 158.257724,69.7921017 158.060603,69.5878475 C157.859931,69.3835932 157.7445,69.1583898 157.71431,68.9139831 C157.685897,68.6678305 157.7445,68.4251695 157.893672,68.1772712 C158.042845,67.9346102 158.286138,67.7513051 158.625328,67.634339 C159.483069,67.5767288 160.324828,67.4510339 161.150603,67.2502712 C161.979931,67.0547458 162.795052,66.847 163.603069,66.6217966 C164.407534,66.3965932 165.219103,66.1748814 166.041328,65.9601525 C166.852897,65.7454237 167.682224,65.5691017 168.518655,65.4329322 C169.1775,65.3369153 169.811483,65.3159661 170.429483,65.3735763 C171.045707,65.4329322 171.677914,65.5097458 172.315448,65.6092542 C172.715017,65.7244746 172.984948,65.9165085 173.134121,66.1818644 C173.286845,66.4489661 173.32769,66.714322 173.269086,66.986661 C173.210483,67.2659831 173.057759,67.494678 172.809138,67.6797288 C172.55519,67.8630339 172.224879,67.9381017 171.809328,67.8996949 C171.26769,67.8228814 170.74381,67.7879661 170.23769,67.7949492 C169.728017,67.8054237 169.225448,67.8281186 168.729983,67.8700169 C168.326862,69.319 167.994776,70.7749661 167.726621,72.2448983 C167.45669,73.718322 167.183207,75.1865085 166.904397,76.6529492 C166.606052,78.3341186 166.307707,80.0152881 166.00581,81.6755085 C165.707466,83.3427119 165.480155,85.0343559 165.320328,86.7591695 C165.201345,87.0943559 165.014879,87.3317797 164.768034,87.4819153 C164.519414,87.6250678 164.269017,87.6844237 164.018621,87.6599831 C163.773552,87.6250678 163.540914,87.513339 163.33669,87.3160678 C163.123586,87.1205424 162.999276,86.8447119 162.961983,86.4973051 C163.116483,84.769 163.349121,83.0773559 163.643914,81.4136441 C163.94581,79.7499322 164.244155,78.0722542 164.5425,76.3875932 C164.803552,75.0363729 165.045069,73.6903898 165.274155,72.3496441 C165.503241,71.0071525 165.787379,69.6698983 166.128345,68.3413729 C164.952724,68.634661 163.780655,68.9541356 162.613914,69.2945593 C161.4525,69.6402203 160.211172,69.8619322 158.897034,69.9562034" id="Fill-12" sketch:type="MSShapeGroup"></path>
                <path d="M186.91481,65.3980169 C186.889948,65.8885763 186.747879,66.2674068 186.4815,66.5292712 C186.216897,66.7893898 185.918552,66.9290508 185.582914,66.9534915 C185.249052,66.9761864 184.931172,66.8801695 184.632828,66.670678 C184.330931,66.4576949 184.14269,66.1277458 184.069879,65.6808305 L184.069879,65.7157458 C184.069879,65.6913051 184.066328,65.6267119 184.057448,65.5202203 C184.043241,65.4154746 184.025483,65.3369153 184.000621,65.2880339 C183.977534,65.2164576 183.886966,65.0052203 183.73069,64.6508305 C183.574414,64.2999322 183.446552,64.0171186 183.352431,63.8058814 L182.238966,63.484661 C181.972586,63.7482712 181.697328,63.9787119 181.409638,64.1742373 C181.121948,64.375 180.882207,64.6316271 180.69219,64.9336441 C179.97119,66.0212542 179.319448,67.2939153 178.731638,68.7533729 C178.140276,70.216322 177.682103,71.7368814 177.348241,73.3185424 C177.009052,74.8967119 176.813707,76.4661525 176.751552,78.0181356 C176.689397,79.5753559 176.808379,81.0033898 177.096069,82.3004915 C177.191966,82.6304407 177.348241,82.9411864 177.559569,83.2379661 C177.778,83.5312542 177.980448,83.8437458 178.174017,84.1754407 C178.511431,84.1946441 178.832862,84.2260678 179.145414,84.2644746 C179.454414,84.2941525 179.779397,84.3116102 180.11681,84.3116102 C180.521707,84.290661 180.931931,84.0794237 181.336828,83.6778983 C181.750603,83.2781186 182.137741,82.8242203 182.507121,82.3162034 C182.8765,81.8081864 183.228121,81.3001695 183.553103,80.7799322 C183.87631,80.2614407 184.156897,79.861661 184.396638,79.5753559 C184.782,79.2715932 185.16381,79.1284407 185.547397,79.1493898 C185.932759,79.177322 186.241759,79.3030169 186.4815,79.5421864 C186.723017,79.7796102 186.856207,80.0833729 186.879293,80.4587119 C186.904155,80.8410339 186.758534,81.2163729 186.449534,81.5899661 C186.161845,81.921661 185.895466,82.2725593 185.655724,82.6374237 C185.415983,83.0022881 185.183345,83.3741356 184.954259,83.7494746 C184.725172,84.1248136 184.473,84.4861864 184.199517,84.8266102 C183.920707,85.1705254 183.606379,85.4847627 183.245879,85.7675763 C182.405897,86.4257288 181.489552,86.8726441 180.495069,87.108322 C179.49881,87.3422542 178.555828,87.3352712 177.671448,87.0908644 C176.783517,86.8447119 176.012793,86.3611356 175.368155,85.6383898 C174.719966,84.9261186 174.34881,83.9362712 174.25469,82.6880508 C174.20319,81.9356271 174.133931,81.1989153 174.036259,80.479661 C173.942138,79.758661 173.904845,79.0236949 173.927931,78.2660339 C174.025603,75.5793051 174.45181,73.0462034 175.201224,70.6667288 C175.961293,68.2820169 176.950448,65.9025424 178.174017,63.5230678 C178.316086,63.2629492 178.497224,63.0185424 178.715655,62.7793729 C178.930534,62.5436949 179.163172,62.3184915 179.415345,62.1072542 C179.669293,61.8925254 179.912586,61.6987458 180.150552,61.5067119 C180.390293,61.3164237 180.594517,61.152322 180.761448,61.0091695 C180.956793,60.8468136 181.150362,60.7088983 181.354586,60.6041525 C181.55881,60.497661 181.780793,60.4679831 182.024086,60.5151186 C182.860517,60.7054068 183.570862,60.9009322 184.14269,61.115661 C184.719845,61.3303898 185.197552,61.6062203 185.582914,61.9466441 C185.964724,62.2923051 186.259517,62.7374746 186.467293,63.2908814 C186.667966,63.8460339 186.82069,64.5495763 186.91481,65.3980169 L186.91481,65.3980169 Z M184.036138,65.1448814 C184.036138,65.2880339 184.050345,65.3840508 184.069879,65.4329322 C184.069879,65.3369153 184.066328,65.2548644 184.057448,65.1832881 C184.043241,65.1117119 184.036138,65.1012373 184.036138,65.1448814 L184.036138,65.1448814 Z" id="Fill-13" sketch:type="MSShapeGroup"></path>
                <path d="M202.332845,60.3894237 C202.588569,60.1851695 202.865603,60.0821695 203.163948,60.0821695 C203.465845,60.0821695 203.749983,60.1781864 204.018138,60.3719661 C204.284517,60.5657458 204.47631,60.8555424 204.593517,61.2448475 C204.732034,63.0220339 204.707172,64.7258983 204.520707,66.3599322 C204.332466,67.9887288 204.069638,69.6122881 203.723345,71.2323559 C203.837,71.2550508 203.952431,71.2620339 204.051879,71.2620339 C204.160207,71.2620339 204.266759,71.276 204.38219,71.3004407 C204.847466,71.4366102 205.165345,71.658322 205.339379,71.9690678 C205.51519,72.2745763 205.564914,72.5888136 205.499207,72.9100339 C205.426397,73.2260169 205.245259,73.4966102 204.957569,73.711339 C204.666328,73.9260678 204.280966,74.0168475 203.792603,73.9697119 C203.673621,73.9452712 203.563517,73.9330508 203.462293,73.9330508 L203.130207,73.9330508 C202.945517,74.8216441 202.7555,75.7294407 202.554828,76.6529492 C202.359483,77.5782034 202.183672,78.5191695 202.016741,79.4723559 C201.878224,80.3382542 201.791207,81.2024068 201.759241,82.0578305 C201.721948,82.9132542 201.659793,83.7721695 201.565672,84.6380678 C201.586983,84.7759831 201.602966,84.8562881 201.602966,84.8772373 C201.602966,84.901678 201.613621,84.9592881 201.634931,85.048322 C201.846259,85.2997119 201.951034,85.556339 201.963466,85.8147119 C201.977672,86.0818136 201.915517,86.3262203 201.773448,86.5514237 C201.634931,86.7836102 201.434259,86.9651695 201.162552,87.1048305 C200.899724,87.2375085 200.580069,87.2846441 200.205362,87.2375085 C199.582034,86.9878644 199.175362,86.4973051 198.992448,85.7710678 C198.804207,85.0378475 198.724293,84.2470169 198.745603,83.3915932 C198.770466,82.5344237 198.853931,81.7139153 198.992448,80.928322 C199.127414,80.1409831 199.221534,79.5544068 199.269483,79.1668475 C199.502121,77.5258305 199.814672,75.8830678 200.205362,74.2455424 C199.164707,74.4916949 198.134707,74.8391017 197.11181,75.2790339 C196.092466,75.7294407 195.082,76.1798475 194.087517,76.6354915 C194.059103,76.7489661 194.043121,76.8572034 194.032466,76.9567119 C194.02181,77.0632034 194.004052,77.1714407 193.97919,77.2849153 C193.97919,77.353 193.920586,77.6043898 193.806931,78.037339 C193.6915,78.4737797 193.563638,78.9957627 193.421569,79.6102712 C193.283052,80.2300169 193.133879,80.8951525 192.974052,81.6109153 C192.810672,82.333661 192.668603,83.0127627 192.554948,83.6674237 C192.439517,84.3116102 192.356052,84.8772373 192.311655,85.3590678 C192.267259,85.8391525 192.277914,86.1429153 192.345397,86.2790847 C192.460828,86.6683898 192.457276,87.0157966 192.329414,87.3195593 C192.199776,87.6320508 192.01331,87.8607458 191.770017,88.0073898 C191.5285,88.1575254 191.237259,88.2081525 190.903397,88.1610169 C190.564207,88.1173729 190.244552,87.9427966 189.946207,87.6495085 C189.619448,87.0803898 189.463172,86.4152542 189.473828,85.6488644 C189.484483,84.8842203 189.575052,84.0968814 189.734879,83.2885932 C189.898259,82.4768136 190.095379,81.6929661 190.328017,80.928322 C190.560655,80.1654237 190.732914,79.486322 190.851897,78.8927627 L191.059672,77.868 C190.921155,77.8906949 190.793293,77.8906949 190.67431,77.868 C190.67431,77.8470508 190.649448,77.8330847 190.608603,77.8330847 C190.050983,77.5363051 189.734879,77.147 189.665621,76.6704068 C189.599914,76.190322 189.80769,75.7468983 190.2925,75.3366441 C190.47719,75.2458644 190.67431,75.1707966 190.885638,75.1114407 C191.093414,75.057322 191.302966,75.0032034 191.510741,74.9595593 C191.533828,74.9386102 191.555138,74.9246441 191.58,74.9246441 C191.974241,72.5067627 192.283241,70.1098305 192.501672,67.7268644 C192.720103,65.3404068 192.856845,62.9434746 192.901241,60.5290847 C192.974052,60.1170847 193.133879,59.8028475 193.389603,59.5846271 C193.643552,59.3698983 193.920586,59.2564237 194.226034,59.2442034 C194.524379,59.2337288 194.808517,59.3175254 195.080224,59.4990847 C195.343052,59.6841356 195.536621,59.9774237 195.652052,60.3894237 C195.602328,62.6013051 195.499328,64.7835085 195.335948,66.9395254 C195.176121,69.0937966 194.934603,71.2620339 194.607845,73.4582034 L194.677103,73.4215424 C194.884879,73.3045763 195.085552,73.2103051 195.288,73.1317458 C195.481569,73.0496949 195.673362,72.9641525 195.859828,72.8716271 C196.671397,72.5067627 197.493621,72.1872881 198.333603,71.9132034 C199.164707,71.6408644 200.008241,71.4505763 200.87131,71.3336102 C201.125259,70.2425085 201.350793,69.1583898 201.551466,68.0847458 C201.745034,67.0145932 201.904862,65.92 202.016741,64.8009661 C202.06469,64.2754915 202.050483,63.7552542 201.981224,63.2297797 C201.915517,62.7043051 201.856914,62.182322 201.808966,61.6533559 L201.808966,61.3129322 C201.904862,60.9009322 202.075345,60.5971695 202.332845,60.3894237" id="Fill-14" sketch:type="MSShapeGroup"></path>
                <path d="M85.7705862,101.582441 L85.0424828,98.3842034 L84.6677759,98.3842034 L84.6677759,101.582441 L83.2666207,101.582441 L83.2666207,94.0058305 L84.6677759,94.0058305 C86.3388621,94.0058305 87.0527586,94.7582542 87.0527586,96.1915254 C87.0527586,96.9404576 86.8076897,97.6230508 86.2731552,97.9093559 L87.1681897,101.582441 L85.7705862,101.582441 L85.7705862,101.582441 Z M84.6677759,97.3542034 C84.8613448,97.3542034 85.1188448,97.3332542 85.3301724,97.1901017 C85.5343966,97.0434576 85.7048793,96.7676271 85.7048793,96.231678 C85.7048793,95.6957288 85.5343966,95.4059322 85.3301724,95.2627797 C85.1188448,95.1161356 84.8613448,95.1074068 84.6677759,95.1074068 L84.6677759,97.3542034 L84.6677759,97.3542034 Z" id="Fill-15" sketch:type="MSShapeGroup"></path>
                <path d="M89.9420862,94.0058305 L93.1439655,94.0058305 L93.1439655,95.1475593 L91.3414655,95.1475593 L91.3414655,97.1359831 L92.6378448,97.1359831 L92.6378448,98.3562712 L91.3414655,98.3562712 L91.3414655,100.435475 L93.1439655,100.435475 L93.1439655,101.582441 L89.9420862,101.582441 L89.9420862,94.0058305" id="Fill-16" sketch:type="MSShapeGroup"></path>
                <path d="M98.2389138,96.0378983 C98.2389138,95.7882542 98.2264828,95.5089322 98.1359138,95.2942034 C98.0453448,95.0864576 97.9032759,94.9433051 97.6812931,94.9433051 C97.3172414,94.9537797 97.2018103,95.2540508 97.2018103,95.6957288 C97.2018103,95.9523559 97.3438793,96.2212034 97.553431,96.5075085 C97.7612069,96.7973051 98.0311379,97.0940847 98.3046207,97.4153051 C98.6278276,97.7976271 98.9545862,98.188678 99.1996552,98.571 C99.4429483,98.953322 99.613431,99.3443729 99.613431,99.7581186 C99.613431,100.262644 99.5086552,100.732254 99.2103103,101.086644 C98.9119655,101.435797 98.4342586,101.662746 97.6670862,101.662746 C96.7720517,101.662746 96.265931,101.393898 95.9817931,100.981898 C95.6976552,100.568153 95.6319483,100.023475 95.6319483,99.4578475 L97.0082414,99.3548475 C97.0082414,99.6725763 97.0188966,99.9920508 97.1218966,100.227729 C97.2160172,100.477373 97.3687414,100.639729 97.6670862,100.639729 C98.0826379,100.639729 98.2389138,100.292322 98.2389138,99.8087458 C98.2389138,99.5591017 98.0826379,99.2693051 97.8748621,98.9725254 C97.7612069,98.8258814 97.6422241,98.6722542 97.5108103,98.5203729 C97.2408793,98.2096271 96.9425345,97.8622203 96.6299828,97.4798983 C96.3209828,97.0940847 96.0847931,96.7047797 95.9427241,96.3032542 C95.8628103,96.1059831 95.8255172,95.9017288 95.8255172,95.6957288 C95.8255172,95.2837288 95.9427241,94.8403051 96.241069,94.4998814 C96.5394138,94.171678 96.9940345,93.9342542 97.6528793,93.9237797 C98.4999655,93.9133051 98.9918793,94.1891356 99.2635862,94.5924068 C99.537069,95.0044068 99.613431,95.5089322 99.613431,95.9314068 L98.2389138,96.0378983" id="Fill-17" sketch:type="MSShapeGroup"></path>
                <path d="M106.004759,100.023475 C105.992328,100.33422 105.912414,100.610051 105.770345,100.84922 C105.654914,101.053475 105.475552,101.250746 105.2145,101.404373 C104.955224,101.568475 104.603603,101.662746 104.136552,101.662746 C103.671276,101.662746 103.307224,101.568475 103.046172,101.404373 C102.786897,101.250746 102.619966,101.053475 102.502759,100.84922 C102.36069,100.610051 102.284328,100.33422 102.270121,100.023475 L102.270121,95.5595593 C102.284328,95.2627797 102.36069,94.9834576 102.502759,94.7477797 C102.619966,94.5400339 102.786897,94.3357797 103.046172,94.178661 C103.307224,94.0250339 103.671276,93.9237797 104.136552,93.9237797 C104.603603,93.9237797 104.955224,94.0250339 105.2145,94.178661 C105.475552,94.3357797 105.654914,94.5400339 105.770345,94.7477797 C105.912414,94.9834576 105.992328,95.2627797 106.004759,95.5595593 L106.004759,100.023475 L106.004759,100.023475 Z M104.603603,95.5595593 C104.603603,95.3553051 104.552103,95.2121525 104.42069,95.0864576 C104.358534,95.0358305 104.253759,95.0044068 104.136552,95.0044068 C103.889707,95.0044068 103.7725,95.1475593 103.722776,95.2837288 C103.685483,95.3657797 103.671276,95.4583051 103.671276,95.5595593 L103.671276,100.023475 C103.671276,100.238203 103.733431,100.384847 103.864845,100.496576 C103.927,100.548949 104.017569,100.578627 104.136552,100.578627 C104.381621,100.578627 104.500603,100.456424 104.552103,100.302797 C104.591172,100.227729 104.603603,100.135203 104.603603,100.023475 L104.603603,95.5595593 L104.603603,95.5595593 Z" id="Fill-18" sketch:type="MSShapeGroup"></path>
                <path d="M111.447776,101.582441 L110.723224,98.3842034 L110.348517,98.3842034 L110.348517,101.582441 L108.947362,101.582441 L108.947362,94.0058305 L110.348517,94.0058305 C112.019603,94.0058305 112.729948,94.7582542 112.729948,96.1915254 C112.729948,96.9404576 112.488431,97.6230508 111.953897,97.9093559 L112.848931,101.582441 L111.447776,101.582441 L111.447776,101.582441 Z M110.348517,97.3542034 C110.542086,97.3542034 110.799586,97.3332542 111.007362,97.1901017 C111.215138,97.0434576 111.385621,96.7676271 111.385621,96.231678 C111.385621,95.6957288 111.215138,95.4059322 111.007362,95.2627797 C110.799586,95.1161356 110.542086,95.1074068 110.348517,95.1074068 L110.348517,97.3542034 L110.348517,97.3542034 Z" id="Fill-19" sketch:type="MSShapeGroup"></path>
                <path d="M115.127362,95.1475593 L115.127362,94.0058305 L119.174552,94.0058305 L119.174552,95.1475593 L117.849759,95.1475593 L117.849759,101.582441 L116.452155,101.582441 L116.452155,95.1475593 L115.127362,95.1475593" id="Fill-20" sketch:type="MSShapeGroup"></path>
            </g>
        </g>
    </g>
</svg>